<svg width="375" height="277" viewBox="0 0 375 277" fill="none" xmlns="http://www.w3.org/2000/svg">
<path d="M337.057 257.499H312.282V257.686H337.057V257.499Z" fill="#EBEBEB"/>
<path d="M248.278 259.534H241.778V259.721H248.278V259.534Z" fill="#EBEBEB"/>
<path d="M311.533 250.557H297.178V250.744H311.533V250.557Z" fill="#EBEBEB"/>
<path d="M72.0599 251.814H39.7516V252.001H72.0599V251.814Z" fill="#EBEBEB"/>
<path d="M83.4602 251.814H78.725V252.001H83.4602V251.814Z" fill="#EBEBEB"/>
<path d="M168.932 254.971H98.855V255.158H168.932V254.971Z" fill="#EBEBEB"/>
<path d="M177.797 212.1H33.3632C32.2304 212.1 31.1439 211.65 30.3429 210.849C29.5418 210.048 29.0918 208.962 29.0918 207.829V4.78524C29.1017 3.65889 29.5561 2.58204 30.356 1.78907C31.156 0.996107 32.2368 0.551226 33.3632 0.55127H177.797C178.93 0.55127 180.016 1.00129 180.817 1.80233C181.618 2.60336 182.068 3.6898 182.068 4.82264V207.829C182.068 208.962 181.618 210.048 180.817 210.849C180.016 211.65 178.93 212.1 177.797 212.1ZM33.3632 0.70088C32.2806 0.702858 31.2428 1.13381 30.4773 1.89934C29.7118 2.66488 29.2808 3.70261 29.2788 4.78524V207.829C29.2808 208.911 29.7118 209.949 30.4773 210.715C31.2428 211.48 32.2806 211.911 33.3632 211.913H177.797C178.88 211.911 179.917 211.48 180.683 210.715C181.448 209.949 181.879 208.911 181.881 207.829V4.78524C181.879 3.70261 181.448 2.66488 180.683 1.89934C179.917 1.13381 178.88 0.702858 177.797 0.70088H33.3632Z" fill="#EBEBEB"/>
<path d="M339.608 212.1H195.159C194.027 212.098 192.942 211.647 192.141 210.847C191.34 210.046 190.89 208.961 190.888 207.829V4.78524C190.9 3.65951 191.355 2.58378 192.154 1.79123C192.954 0.998685 194.033 0.553176 195.159 0.55127H339.608C340.732 0.555163 341.809 1.00178 342.605 1.79433C343.402 2.58687 343.854 3.66148 343.864 4.78524V207.829C343.864 208.959 343.416 210.043 342.618 210.844C341.821 211.644 340.738 212.096 339.608 212.1ZM195.159 0.70088C194.077 0.702858 193.039 1.13381 192.273 1.89934C191.508 2.66488 191.077 3.70261 191.075 4.78524V207.829C191.077 208.911 191.508 209.949 192.273 210.715C193.039 211.48 194.077 211.911 195.159 211.913H339.608C340.69 211.911 341.728 211.48 342.494 210.715C343.259 209.949 343.69 208.911 343.692 207.829V4.78524C343.69 3.70261 343.259 2.66488 342.494 1.89934C341.728 1.13381 340.69 0.702858 339.608 0.70088H195.159Z" fill="#EBEBEB"/>
<path d="M374.534 245.463H0.508789V245.65H374.534V245.463Z" fill="#EBEBEB"/>
<path d="M312.259 30.2266H218.91V129.635H312.259V30.2266Z" fill="#EBEBEB"/>
<path d="M306.649 35.8369H224.52V124.025H306.649V35.8369Z" fill="#F5F5F5"/>
<path d="M256.754 124.025H281.439L304.614 35.8369H279.928L256.754 124.025Z" fill="#FAFAFA"/>
<path d="M268.461 35.8369L245.286 124.025H251.27L274.445 35.8369H268.461Z" fill="#FAFAFA"/>
<path d="M313.433 34.9017H217.728L215.708 30.189H315.453L313.433 34.9017Z" fill="#F5F5F5"/>
<path d="M313.433 37.6322H217.728L215.708 32.9194H315.453L313.433 37.6322Z" fill="#F0F0F0"/>
<path d="M313.433 40.3626H217.728L215.708 35.6499H315.453L313.433 40.3626Z" fill="#E6E6E6"/>
<path d="M313.433 43.0929H217.728L215.708 38.3801H315.453L313.433 43.0929Z" fill="#E0E0E0"/>
<path d="M318.939 24.2869H212.23V30.5705H318.939V24.2869Z" fill="#E0E0E0"/>
<path d="M213.322 87.5421C213.034 87.5421 212.758 87.4278 212.555 87.2244C212.351 87.021 212.237 86.7451 212.237 86.4574V49.8029C212.237 49.5153 212.351 49.2394 212.555 49.036C212.758 48.8325 213.034 48.7183 213.322 48.7183C213.609 48.7183 213.885 48.8325 214.089 49.036C214.292 49.2394 214.406 49.5153 214.406 49.8029V86.4574C214.406 86.7451 214.292 87.021 214.089 87.2244C213.885 87.4278 213.609 87.5421 213.322 87.5421Z" fill="#E0E0E0"/>
<path d="M213.711 29.3137H212.925V51.082H213.711V29.3137Z" fill="#E0E0E0"/>
<path d="M68.2224 28.304H66.8759V133.308H68.2224V28.304Z" fill="#E0E0E0"/>
<path d="M152.042 28.304H150.695V133.308H152.042V28.304Z" fill="#E0E0E0"/>
<path d="M157.323 34.9017H61.6021L59.5824 30.189H159.335L157.323 34.9017Z" fill="#F5F5F5"/>
<path d="M157.323 41.3724H61.6021L59.5824 36.6597H159.335L157.323 41.3724Z" fill="#F5F5F5"/>
<path d="M157.323 47.8431H61.6021L59.5824 43.1304H159.335L157.323 47.8431Z" fill="#F5F5F5"/>
<path d="M157.323 54.3138H61.6021L59.5824 49.6011H159.335L157.323 54.3138Z" fill="#F5F5F5"/>
<path d="M157.323 60.7843H61.6021L59.5824 56.0715H159.335L157.323 60.7843Z" fill="#F5F5F5"/>
<path d="M157.323 67.255H61.6021L59.5824 62.5422H159.335L157.323 67.255Z" fill="#F5F5F5"/>
<path d="M157.323 73.7257H61.6021L59.5824 69.0129H159.335L157.323 73.7257Z" fill="#F5F5F5"/>
<path d="M157.323 80.1961H61.6021L59.5824 75.4834H159.335L157.323 80.1961Z" fill="#F5F5F5"/>
<path d="M157.323 86.6668H61.6021L59.5824 81.9541H159.335L157.323 86.6668Z" fill="#F5F5F5"/>
<path d="M157.323 93.1375H61.6021L59.5824 88.4248H159.335L157.323 93.1375Z" fill="#F5F5F5"/>
<path d="M157.323 99.6082H61.6021L59.5824 94.8955H159.335L157.323 99.6082Z" fill="#F5F5F5"/>
<path d="M157.323 106.071H61.6021L59.5824 101.359H159.335L157.323 106.071Z" fill="#F5F5F5"/>
<path d="M157.323 112.549H61.6021L59.5824 107.829H159.335L157.323 112.549Z" fill="#F5F5F5"/>
<path d="M157.323 119.013H61.6021L59.5824 114.3H159.335L157.323 119.013Z" fill="#F5F5F5"/>
<path d="M157.323 125.483H61.6021L59.5824 120.771H159.335L157.323 125.483Z" fill="#F5F5F5"/>
<path d="M157.323 131.954H61.6021L59.5824 127.241H159.335L157.323 131.954Z" fill="#F5F5F5"/>
<path d="M159.335 131.954H59.5824V134.647H159.335V131.954Z" fill="#E0E0E0"/>
<path d="M162.813 24.2869H56.1039V30.5705H162.813V24.2869Z" fill="#E0E0E0"/>
<path d="M57.2036 87.5421C56.9159 87.5421 56.64 87.4278 56.4366 87.2244C56.2332 87.021 56.1189 86.7451 56.1189 86.4574V49.8029C56.1189 49.5153 56.2332 49.2394 56.4366 49.036C56.64 48.8325 56.9159 48.7183 57.2036 48.7183C57.4912 48.7183 57.7671 48.8325 57.9706 49.036C58.174 49.2394 58.2882 49.5153 58.2882 49.8029V86.4574C58.2882 86.7451 58.174 87.021 57.9706 87.2244C57.7671 87.4278 57.4912 87.5421 57.2036 87.5421Z" fill="#E0E0E0"/>
<path d="M57.5925 29.3137H56.8071V51.082H57.5925V29.3137Z" fill="#E0E0E0"/>
<path d="M67.3247 200.565C67.2349 200.662 67.7361 201.366 65.6865 201.059C60.6371 200.311 51.8475 198.254 49.4014 193.062C45.908 185.649 56.7398 188.357 56.3658 184.564C55.9917 180.772 43.6489 181.43 42.3548 175.872C41.0606 170.314 49.4089 172.962 49.5211 170.254C49.6333 167.546 39.9984 169.222 38.0834 163.222C36.1684 157.223 43.4544 161.644 42.6166 159.146C41.7788 156.647 33.64 145.374 38.061 144.065C42.4819 142.756 49.9699 154.328 52.8724 155.966C55.7748 157.605 58.3182 148.157 61.7592 152.151C65.2002 156.146 59.7395 170.105 64.123 172.805C67.392 174.825 66.4719 169.267 70.7807 170.307C76.608 171.713 74.6406 192.382 67.3247 200.565Z" fill="#EBEBEB"/>
<path d="M51.7428 170.284C53.2285 170.394 54.6941 170.693 56.1039 171.174C55.1692 169.77 54.1315 168.438 52.9995 167.187C52.9387 167.115 52.9073 167.023 52.9116 166.929C52.9159 166.835 52.9556 166.746 53.0227 166.68C53.0898 166.613 53.1794 166.575 53.2735 166.572C53.3677 166.569 53.4595 166.602 53.5306 166.664C55.9706 169.4 58.0589 172.431 59.747 175.685C61.3403 166.117 57.3308 157.732 57.2859 157.672C57.262 157.606 57.2634 157.533 57.2898 157.468C57.3163 157.403 57.3659 157.35 57.4291 157.32C57.4923 157.289 57.5646 157.283 57.6321 157.302C57.6996 157.322 57.7574 157.365 57.7945 157.425C57.8394 157.515 62.1108 166.439 60.1733 176.478C60.6895 177.458 61.2131 178.513 61.7218 179.642C63.5319 183.669 64.9619 187.857 65.9932 192.15C67.8615 188.625 68.8858 184.715 68.9854 180.727C68.9864 180.691 68.9945 180.655 69.0093 180.622C69.0241 180.588 69.0453 180.558 69.0717 180.533C69.0981 180.508 69.1292 180.489 69.1631 180.476C69.1971 180.463 69.2333 180.457 69.2696 180.458C69.307 180.459 69.3438 180.467 69.3779 180.482C69.412 180.497 69.4428 180.519 69.4685 180.546C69.4942 180.573 69.5143 180.605 69.5277 180.64C69.541 180.675 69.5474 180.712 69.5464 180.749C69.4566 185.025 68.3078 189.212 66.2026 192.935C68.1115 201.383 68.7493 210.069 68.0952 218.705C68.0923 218.755 68.0798 218.803 68.0583 218.847C68.0368 218.891 68.0068 218.931 67.97 218.964C67.9331 218.996 67.8902 219.021 67.8437 219.037C67.7971 219.053 67.7479 219.06 67.6987 219.057H67.6539C67.5633 219.041 67.4823 218.991 67.4269 218.917C67.3714 218.844 67.3456 218.752 67.3546 218.661C68.2747 205.196 66.27 194.416 63.4872 186.233C61.943 184.444 59.8296 183.242 57.5028 182.829C57.4307 182.814 57.3668 182.773 57.3238 182.714C57.2808 182.654 57.2619 182.58 57.2709 182.507C57.2755 182.471 57.2873 182.436 57.3057 182.404C57.324 182.372 57.3485 182.344 57.3778 182.322C57.407 182.299 57.4404 182.283 57.476 182.274C57.5116 182.265 57.5487 182.263 57.5851 182.268C59.6256 182.62 61.5186 183.561 63.0309 184.976C61.4143 180.423 59.2756 176.073 56.6575 172.012C55.0798 171.353 53.4041 170.959 51.6979 170.845C51.6238 170.839 51.5549 170.805 51.506 170.749C51.4571 170.693 51.432 170.62 51.4361 170.546C51.4379 170.508 51.4474 170.471 51.4641 170.437C51.4807 170.403 51.5041 170.373 51.5329 170.349C51.5616 170.324 51.595 170.306 51.6312 170.295C51.6673 170.284 51.7053 170.28 51.7428 170.284Z" fill="#F5F5F5"/>
<path d="M73.8178 203.43C78.0144 203.505 85.1807 199.608 88.0308 195.822C90.8809 192.037 82.8543 194.326 83.6771 191.334C84.5 188.342 94.4042 190.549 96.2294 186.217C98.0547 181.886 90.9183 182.889 91.2025 180.674C91.4868 178.46 98.885 178.917 101.256 174.316C103.628 169.715 97.1271 172.296 98.1444 170.389C99.1618 168.481 107.323 160.462 103.912 158.794C100.501 157.126 92.8482 165.474 90.2899 166.409C87.7316 167.344 87.1256 161.569 83.7893 164.33C80.453 167.09 82.9515 179.148 79.0317 180.742C76.1069 181.931 77.3486 176.403 73.9824 177.802C68.0279 180.248 72.0898 203.393 73.8178 203.43Z" fill="#E0E0E0"/>
<g opacity="0.3">
<path opacity="0.3" d="M73.8178 203.43C78.0144 203.505 85.1807 199.608 88.0308 195.822C90.8809 192.037 82.8543 194.326 83.6771 191.334C84.5 188.342 94.4042 190.549 96.2294 186.217C98.0547 181.886 90.9183 182.889 91.2025 180.674C91.4868 178.46 98.885 178.917 101.256 174.316C103.628 169.715 97.1271 172.296 98.1444 170.389C99.1618 168.481 107.323 160.462 103.912 158.794C100.501 157.126 92.8482 165.474 90.2899 166.409C87.7316 167.344 87.1256 161.569 83.7893 164.33C80.453 167.09 82.9515 179.148 79.0317 180.742C76.1069 181.931 77.3486 176.403 73.9824 177.802C68.0279 180.248 72.0898 203.393 73.8178 203.43Z" fill="#E0E0E0"/>
</g>
<path d="M75.1792 198.396C75.1159 198.373 75.0628 198.327 75.0296 198.269C73.4303 194.758 72.7802 190.889 73.1445 187.048C73.142 187.007 73.1483 186.966 73.1629 186.928C73.1775 186.89 73.2 186.856 73.2291 186.828C73.2581 186.799 73.293 186.777 73.3313 186.763C73.3695 186.749 73.4103 186.744 73.4509 186.747C73.4915 186.75 73.5309 186.762 73.5665 186.782C73.6021 186.802 73.633 186.829 73.6572 186.862C73.6813 186.895 73.6981 186.932 73.7065 186.972C73.7148 187.012 73.7145 187.053 73.7056 187.093C73.3922 190.739 73.9752 194.406 75.4037 197.775C77.1382 193.095 79.2757 188.575 81.792 184.265C81.044 175.288 85.6669 167.883 85.7118 167.808C85.7515 167.745 85.8144 167.701 85.8866 167.685C85.9589 167.669 86.0346 167.682 86.0971 167.722C86.1595 167.762 86.2037 167.825 86.2199 167.897C86.236 167.969 86.2228 168.045 86.1831 168.107C83.5094 172.751 82.1661 178.041 82.3007 183.397C85.3168 178.223 88.916 173.412 93.0277 169.057C93.0616 169.018 93.1031 168.987 93.1496 168.965C93.1962 168.943 93.2468 168.93 93.2983 168.929C93.3498 168.927 93.4011 168.936 93.449 168.955C93.4968 168.974 93.5402 169.003 93.5764 169.04C93.6126 169.077 93.6408 169.12 93.6592 169.169C93.6777 169.217 93.686 169.268 93.6837 169.32C93.6813 169.371 93.6684 169.422 93.6456 169.468C93.6228 169.514 93.5908 169.555 93.5514 169.588C90.5136 172.785 87.772 176.25 85.3602 179.941C87.8872 178.99 90.5669 178.508 93.2671 178.52C93.3412 178.524 93.4108 178.557 93.4611 178.611C93.5115 178.666 93.5385 178.738 93.5364 178.812C93.5345 178.884 93.5045 178.952 93.4528 179.003C93.4011 179.053 93.3318 179.081 93.2596 179.081C90.3569 179.057 87.4792 179.619 84.7992 180.734C83.1468 183.271 81.6238 185.89 80.2361 188.581C81.363 187.799 82.6463 187.271 83.9972 187.034C85.3481 186.796 86.7345 186.854 88.0607 187.205C88.1328 187.224 88.1944 187.271 88.2322 187.336C88.27 187.4 88.2809 187.477 88.2627 187.549C88.2532 187.585 88.2367 187.618 88.2141 187.647C88.1916 187.676 88.1635 187.7 88.1315 187.719C88.0994 187.737 88.0641 187.748 88.0275 187.752C87.991 187.757 87.9539 187.754 87.9186 187.744C86.4809 187.374 84.9742 187.363 83.5314 187.713C82.0887 188.062 80.754 188.761 79.6451 189.748C74.822 199.309 72.0716 209.781 71.5736 220.478C71.5698 220.575 71.5287 220.666 71.4589 220.733C71.3892 220.8 71.2963 220.837 71.1996 220.837C71.103 220.837 71.01 220.8 70.9403 220.733C70.8706 220.666 70.8295 220.575 70.8256 220.478C71.1395 212.938 72.6078 205.491 75.1792 198.396Z" fill="#F5F5F5"/>
<path d="M61.9911 244.416C57.989 236.891 55.3559 226.014 55.3559 221.226C55.3753 219.275 55.8235 217.351 56.669 215.591C57.5144 213.832 58.7363 212.28 60.2482 211.045H80.7522C82.2641 212.28 83.486 213.832 84.3314 215.591C85.1768 217.351 85.6251 219.275 85.6445 221.226C85.6445 225.999 83.0113 236.876 79.0093 244.416H61.9911Z" fill="#F0F0F0"/>
<path d="M183.916 276.365C264.019 276.365 328.956 272.574 328.956 267.897C328.956 263.22 264.019 259.429 183.916 259.429C103.813 259.429 38.8763 263.22 38.8763 267.897C38.8763 272.574 103.813 276.365 183.916 276.365Z" fill="#F5F5F5"/>
<path d="M219.426 48.9052H201.473C200.888 48.9176 200.324 49.1255 199.871 49.4956C199.419 49.8657 199.103 50.3768 198.974 50.9474L198.854 51.5084C198.544 52.9003 197.775 54.1475 196.671 55.0497C195.567 55.9519 194.191 56.4567 192.765 56.4829H175.71C174.357 56.5131 173.047 56.007 172.066 55.0751C171.085 54.1431 170.513 52.861 170.473 51.5084V50.9474C170.46 50.3931 170.227 49.8669 169.826 49.4841C169.425 49.1013 168.888 48.8931 168.334 48.9052H150.381C147.432 48.9576 144.605 50.0888 142.434 52.0848C140.263 54.0807 138.899 56.8031 138.599 59.737L124.192 224.712C124.039 226.092 124.183 227.487 124.612 228.807C125.042 230.127 125.748 231.34 126.683 232.365C127.617 233.391 128.76 234.205 130.035 234.755C131.309 235.304 132.686 235.576 134.073 235.551H203.096C206.045 235.497 208.873 234.364 211.043 232.367C213.214 230.37 214.578 227.647 214.878 224.712L229.315 59.737C229.466 58.3575 229.322 56.9617 228.891 55.6425C228.461 54.3232 227.754 53.1109 226.819 52.086C225.883 51.0612 224.74 50.2475 223.465 49.699C222.19 49.1505 220.813 48.8799 219.426 48.9052Z" fill="#407BFF"/>
<path opacity="0.7" d="M219.426 48.9052H201.473C200.888 48.9176 200.324 49.1255 199.871 49.4956C199.419 49.8657 199.103 50.3768 198.974 50.9474L198.854 51.5084C198.544 52.9003 197.775 54.1475 196.671 55.0497C195.567 55.9519 194.191 56.4567 192.765 56.4829H175.71C174.357 56.5131 173.047 56.007 172.066 55.0751C171.085 54.1431 170.513 52.861 170.473 51.5084V50.9474C170.46 50.3931 170.227 49.8669 169.826 49.4841C169.425 49.1013 168.888 48.8931 168.334 48.9052H150.381C147.432 48.9576 144.605 50.0888 142.434 52.0848C140.263 54.0807 138.899 56.8031 138.599 59.737L124.192 224.712C124.039 226.092 124.183 227.487 124.612 228.807C125.042 230.127 125.748 231.34 126.683 232.365C127.617 233.391 128.76 234.205 130.035 234.755C131.309 235.304 132.686 235.576 134.073 235.551H203.096C206.045 235.497 208.873 234.364 211.043 232.367C213.214 230.37 214.578 227.647 214.878 224.712L229.315 59.737C229.466 58.3575 229.322 56.9617 228.891 55.6425C228.461 54.3232 227.754 53.1109 226.819 52.086C225.883 51.0612 224.74 50.2475 223.465 49.699C222.19 49.1505 220.813 48.8799 219.426 48.9052Z" fill="white"/>
<path d="M212.432 124.788H175.777C175.469 124.793 175.163 124.732 174.88 124.61C174.597 124.487 174.343 124.307 174.135 124.079C173.927 123.851 173.77 123.582 173.674 123.289C173.578 122.996 173.545 122.685 173.578 122.379L176.338 90.8186C176.404 90.1662 176.707 89.5606 177.19 89.1166C177.672 88.6727 178.301 88.4212 178.956 88.4099H215.611C215.92 88.4037 216.226 88.4635 216.51 88.5853C216.793 88.7071 217.048 88.888 217.256 89.116C217.464 89.3441 217.621 89.6139 217.717 89.9075C217.812 90.2011 217.844 90.5117 217.81 90.8186L215.05 122.379C214.982 123.031 214.679 123.635 214.197 124.079C213.715 124.523 213.087 124.775 212.432 124.788Z" fill="white"/>
<path d="M200.238 223.47H138.898C138.132 223.484 137.371 223.335 136.667 223.032C135.963 222.729 135.331 222.279 134.814 221.713C134.298 221.147 133.907 220.477 133.67 219.748C133.433 219.019 133.353 218.248 133.437 217.486C133.604 215.865 134.357 214.362 135.556 213.259C136.755 212.157 138.317 211.531 139.945 211.501H201.286C202.052 211.487 202.813 211.637 203.517 211.94C204.221 212.243 204.853 212.692 205.37 213.258C205.886 213.825 206.276 214.495 206.514 215.224C206.751 215.953 206.831 216.724 206.746 217.486C206.582 219.107 205.829 220.611 204.629 221.714C203.43 222.817 201.868 223.442 200.238 223.47Z" fill="white"/>
<path d="M205.123 79.7323H148.847C148.416 79.7453 147.987 79.6648 147.589 79.4963C147.192 79.3279 146.836 79.0755 146.545 78.7564C146.255 78.4373 146.036 78.0592 145.906 77.6479C145.775 77.2366 145.735 76.8018 145.788 76.3735L146.244 71.1372C146.339 70.2293 146.762 69.3875 147.435 68.7702C148.107 68.153 148.982 67.8029 149.895 67.7859H206.17C206.6 67.7782 207.026 67.8619 207.421 68.0315C207.816 68.2011 208.17 68.4527 208.46 68.7696C208.75 69.0866 208.969 69.4616 209.103 69.8698C209.237 70.2779 209.283 70.71 209.237 71.1372L208.774 76.3735C208.681 77.2827 208.258 78.1263 207.585 78.7451C206.913 79.3639 206.037 79.7151 205.123 79.7323Z" fill="white"/>
<path d="M216.568 70.9576C216.543 71.211 216.425 71.4462 216.237 71.6186C216.05 71.7909 215.806 71.8885 215.551 71.8927C215.431 71.8944 215.313 71.8707 215.203 71.8232C215.093 71.7757 214.995 71.7054 214.914 71.6171C214.834 71.5287 214.773 71.4242 214.735 71.3105C214.698 71.1968 214.685 71.0765 214.698 70.9576C214.724 70.7049 214.842 70.4706 215.03 70.2994C215.217 70.1283 215.462 70.0324 215.716 70.03C215.835 70.0272 215.953 70.0499 216.063 70.0965C216.173 70.1432 216.271 70.2127 216.352 70.3006C216.433 70.3884 216.494 70.4924 216.531 70.6057C216.569 70.719 216.581 70.839 216.568 70.9576Z" fill="white"/>
<path d="M216.322 73.7555C216.298 74.0082 216.181 74.2433 215.995 74.4158C215.809 74.5883 215.565 74.6861 215.312 74.6905C215.192 74.6923 215.073 74.6686 214.964 74.6211C214.854 74.5736 214.755 74.5033 214.675 74.4149C214.594 74.3265 214.533 74.2221 214.496 74.1084C214.459 73.9947 214.446 73.8744 214.459 73.7555C214.483 73.5027 214.599 73.2676 214.785 73.0951C214.972 72.9226 215.215 72.8248 215.469 72.8204C215.588 72.8187 215.707 72.8423 215.817 72.8898C215.927 72.9374 216.025 73.0076 216.106 73.096C216.186 73.1844 216.247 73.2889 216.284 73.4026C216.322 73.5162 216.334 73.6365 216.322 73.7555Z" fill="white"/>
<path d="M216.082 76.5457C216.057 76.7992 215.939 77.0344 215.751 77.2067C215.564 77.3791 215.319 77.4766 215.065 77.4808C214.945 77.4825 214.827 77.4589 214.717 77.4114C214.607 77.3639 214.509 77.2936 214.428 77.2052C214.347 77.1168 214.286 77.0123 214.249 76.8987C214.212 76.785 214.199 76.6647 214.212 76.5457C214.238 76.2923 214.355 76.0571 214.543 75.8848C214.73 75.7124 214.975 75.6149 215.229 75.6107C215.349 75.6089 215.468 75.6326 215.577 75.6801C215.687 75.7276 215.786 75.7979 215.866 75.8863C215.947 75.9747 216.008 76.0792 216.045 76.1928C216.082 76.3065 216.095 76.4268 216.082 76.5457Z" fill="white"/>
<path d="M207.876 176.852H139.407C139.098 176.858 138.792 176.798 138.508 176.676C138.224 176.555 137.97 176.374 137.762 176.146C137.553 175.918 137.396 175.648 137.301 175.354C137.205 175.061 137.174 174.75 137.208 174.443L140.394 138.424C140.46 137.772 140.763 137.166 141.246 136.722C141.728 136.279 142.357 136.027 143.013 136.016H211.459C211.767 136.011 212.073 136.071 212.356 136.193C212.638 136.316 212.892 136.497 213.099 136.725C213.307 136.953 213.463 137.222 213.558 137.515C213.653 137.808 213.685 138.118 213.651 138.424L210.502 174.443C210.436 175.097 210.132 175.703 209.648 176.147C209.163 176.592 208.533 176.842 207.876 176.852Z" fill="white"/>
<path d="M158.243 184.377H136.923C136.849 184.379 136.774 184.364 136.706 184.335C136.637 184.305 136.576 184.261 136.525 184.206C136.475 184.151 136.437 184.085 136.414 184.014C136.391 183.943 136.384 183.868 136.392 183.794C136.407 183.634 136.48 183.486 136.597 183.377C136.715 183.268 136.868 183.206 137.028 183.203H158.348C158.423 183.201 158.498 183.216 158.567 183.246C158.636 183.276 158.698 183.32 158.749 183.376C158.799 183.432 158.837 183.499 158.859 183.571C158.882 183.643 158.888 183.719 158.879 183.794C158.862 183.952 158.788 184.099 158.671 184.206C158.554 184.313 158.402 184.374 158.243 184.377Z" fill="white"/>
<path d="M184.888 184.377H162.006C161.93 184.38 161.855 184.366 161.786 184.337C161.716 184.308 161.653 184.264 161.602 184.209C161.551 184.154 161.513 184.088 161.489 184.016C161.466 183.944 161.458 183.869 161.467 183.794C161.482 183.634 161.555 183.486 161.672 183.377C161.789 183.268 161.943 183.206 162.103 183.203H184.993C185.069 183.201 185.143 183.216 185.213 183.246C185.282 183.276 185.344 183.32 185.394 183.376C185.445 183.432 185.483 183.499 185.505 183.571C185.527 183.643 185.534 183.719 185.524 183.794C185.508 183.952 185.434 184.099 185.317 184.206C185.2 184.313 185.047 184.374 184.888 184.377Z" fill="white"/>
<path d="M150.867 189.576H136.475C136.399 189.578 136.324 189.563 136.254 189.533C136.185 189.503 136.122 189.459 136.071 189.403C136.02 189.347 135.982 189.281 135.958 189.209C135.935 189.137 135.927 189.06 135.936 188.985C135.952 188.826 136.026 188.679 136.143 188.57C136.26 188.461 136.412 188.399 136.572 188.394H150.994C151.07 188.394 151.144 188.409 151.213 188.44C151.282 188.47 151.344 188.514 151.395 188.57C151.446 188.626 151.484 188.692 151.508 188.763C151.532 188.835 151.54 188.91 151.533 188.985C151.516 189.149 151.438 189.301 151.315 189.41C151.192 189.52 151.032 189.579 150.867 189.576Z" fill="white"/>
<path d="M178.276 189.576H154.652C154.576 189.578 154.501 189.563 154.432 189.533C154.362 189.503 154.3 189.459 154.249 189.403C154.198 189.347 154.159 189.281 154.136 189.209C154.113 189.137 154.105 189.06 154.114 188.985C154.13 188.825 154.205 188.676 154.323 188.568C154.442 188.459 154.596 188.397 154.757 188.394H178.373C178.449 188.393 178.524 188.407 178.593 188.437C178.663 188.467 178.725 188.511 178.776 188.567C178.827 188.623 178.866 188.69 178.889 188.762C178.912 188.834 178.92 188.91 178.911 188.985C178.897 189.145 178.824 189.293 178.706 189.402C178.589 189.511 178.436 189.573 178.276 189.576Z" fill="white"/>
<path d="M174.461 194.768H136.018C135.943 194.77 135.868 194.757 135.798 194.728C135.729 194.699 135.666 194.655 135.615 194.6C135.564 194.544 135.525 194.478 135.502 194.407C135.479 194.335 135.471 194.259 135.48 194.184C135.496 194.024 135.571 193.876 135.689 193.767C135.808 193.658 135.962 193.596 136.123 193.593H174.565C174.641 193.593 174.715 193.608 174.784 193.639C174.853 193.669 174.915 193.713 174.966 193.769C175.017 193.825 175.055 193.89 175.079 193.962C175.103 194.034 175.111 194.109 175.104 194.184C175.086 194.343 175.01 194.49 174.892 194.597C174.774 194.704 174.62 194.765 174.461 194.768Z" fill="white"/>
<path d="M180.789 194.768H178.253C178.178 194.77 178.103 194.757 178.033 194.728C177.964 194.699 177.901 194.655 177.85 194.599C177.799 194.544 177.76 194.478 177.737 194.407C177.714 194.335 177.706 194.259 177.715 194.184C177.729 194.025 177.802 193.876 177.92 193.767C178.037 193.658 178.19 193.596 178.35 193.593H180.894C180.969 193.591 181.044 193.606 181.113 193.636C181.183 193.666 181.245 193.711 181.295 193.767C181.346 193.823 181.383 193.889 181.406 193.961C181.428 194.033 181.435 194.109 181.425 194.184C181.409 194.342 181.335 194.489 181.218 194.596C181.1 194.704 180.948 194.765 180.789 194.768Z" fill="white"/>
<path d="M153.508 199.966H135.554C135.479 199.967 135.405 199.951 135.335 199.921C135.266 199.891 135.205 199.846 135.154 199.791C135.103 199.735 135.065 199.669 135.041 199.598C135.017 199.526 135.009 199.451 135.016 199.376C135.032 199.215 135.107 199.067 135.225 198.958C135.344 198.849 135.498 198.787 135.659 198.785H153.612C153.688 198.783 153.763 198.798 153.833 198.828C153.902 198.857 153.965 198.902 154.016 198.958C154.067 199.014 154.105 199.08 154.129 199.152C154.152 199.224 154.16 199.3 154.151 199.376C154.135 199.536 154.06 199.684 153.941 199.793C153.823 199.902 153.669 199.964 153.508 199.966Z" fill="white"/>
<path d="M179.622 199.966H157.27C157.195 199.967 157.12 199.951 157.051 199.921C156.982 199.891 156.921 199.846 156.87 199.791C156.819 199.735 156.78 199.669 156.757 199.598C156.733 199.526 156.724 199.451 156.732 199.376C156.748 199.215 156.823 199.067 156.941 198.958C157.06 198.849 157.214 198.787 157.375 198.785H179.719C179.795 198.783 179.87 198.798 179.94 198.828C180.009 198.857 180.072 198.902 180.123 198.958C180.174 199.014 180.212 199.08 180.236 199.152C180.259 199.224 180.267 199.3 180.258 199.376C180.242 199.534 180.168 199.682 180.051 199.791C179.934 199.899 179.782 199.962 179.622 199.966Z" fill="white"/>
<path d="M157.211 205.158H135.106C135.03 205.16 134.955 205.145 134.886 205.115C134.817 205.085 134.755 205.041 134.704 204.985C134.654 204.929 134.616 204.862 134.594 204.79C134.571 204.718 134.565 204.642 134.574 204.567C134.591 204.409 134.665 204.262 134.782 204.155C134.899 204.047 135.051 203.987 135.21 203.984H157.308C157.383 203.981 157.458 203.995 157.528 204.024C157.597 204.053 157.66 204.096 157.711 204.152C157.762 204.207 157.801 204.273 157.824 204.345C157.847 204.416 157.855 204.492 157.846 204.567C157.832 204.727 157.759 204.875 157.641 204.984C157.524 205.093 157.371 205.155 157.211 205.158Z" fill="white"/>
<path d="M178.769 205.158H160.966C160.89 205.16 160.815 205.145 160.746 205.115C160.677 205.085 160.615 205.041 160.564 204.985C160.514 204.929 160.476 204.862 160.454 204.79C160.431 204.718 160.425 204.642 160.435 204.567C160.451 204.409 160.525 204.262 160.642 204.155C160.759 204.047 160.912 203.987 161.07 203.984H178.874C178.949 203.981 179.024 203.995 179.094 204.024C179.164 204.053 179.226 204.096 179.277 204.152C179.328 204.207 179.367 204.273 179.39 204.345C179.414 204.416 179.421 204.492 179.413 204.567C179.396 204.727 179.322 204.876 179.203 204.985C179.085 205.094 178.93 205.155 178.769 205.158Z" fill="white"/>
<path d="M211.564 121.795C211.499 121.87 211.42 121.931 211.331 121.975C211.242 122.019 211.146 122.044 211.047 122.051C210.948 122.057 210.849 122.044 210.755 122.011C210.662 121.979 210.576 121.928 210.502 121.862L179.884 92.6436C179.745 92.5035 179.666 92.3139 179.666 92.1162C179.666 91.9186 179.745 91.729 179.884 91.5889C179.949 91.5142 180.028 91.4531 180.117 91.4092C180.206 91.3654 180.302 91.3395 180.401 91.3333C180.5 91.327 180.599 91.3404 180.692 91.3728C180.786 91.4051 180.872 91.4556 180.946 91.5215L211.564 120.74C211.703 120.881 211.781 121.07 211.781 121.268C211.781 121.465 211.703 121.655 211.564 121.795Z" fill="#407BFF"/>
<path d="M177.176 121.788C177.115 121.708 177.071 121.617 177.046 121.52C177.021 121.423 177.015 121.322 177.03 121.223C177.044 121.124 177.079 121.029 177.131 120.944C177.183 120.858 177.252 120.784 177.333 120.725L192.952 107.956C193.101 107.828 193.294 107.763 193.49 107.775C193.686 107.788 193.869 107.877 194 108.024C194.059 108.103 194.103 108.193 194.127 108.289C194.152 108.386 194.157 108.486 194.142 108.584C194.127 108.682 194.093 108.776 194.042 108.861C193.991 108.946 193.923 109.02 193.843 109.078L178.223 121.855C178.075 121.984 177.882 122.048 177.686 122.036C177.49 122.023 177.307 121.934 177.176 121.788Z" fill="#407BFF"/>
<path d="M197.358 105.278C197.299 105.199 197.255 105.109 197.231 105.012C197.206 104.916 197.201 104.816 197.216 104.718C197.231 104.62 197.265 104.526 197.316 104.441C197.367 104.356 197.435 104.282 197.515 104.224L213.165 91.4318C213.313 91.3034 213.506 91.2385 213.702 91.2511C213.898 91.2636 214.081 91.3528 214.212 91.4992C214.272 91.5784 214.315 91.6688 214.34 91.765C214.364 91.8612 214.369 91.9613 214.354 92.0595C214.34 92.1576 214.306 92.2519 214.254 92.3368C214.203 92.4217 214.135 92.4955 214.055 92.5539L198.406 105.346C198.257 105.474 198.064 105.539 197.868 105.526C197.672 105.514 197.489 105.425 197.358 105.278Z" fill="#407BFF"/>
<g opacity="0.7">
<path opacity="0.7" d="M211.564 121.795C211.499 121.87 211.42 121.931 211.331 121.975C211.242 122.019 211.146 122.044 211.047 122.051C210.948 122.057 210.849 122.044 210.755 122.011C210.662 121.979 210.576 121.928 210.502 121.862L179.884 92.6436C179.745 92.5035 179.666 92.3139 179.666 92.1162C179.666 91.9186 179.745 91.729 179.884 91.5889C179.949 91.5142 180.028 91.4531 180.117 91.4092C180.206 91.3654 180.302 91.3395 180.401 91.3333C180.5 91.327 180.599 91.3404 180.692 91.3728C180.786 91.4051 180.872 91.4556 180.946 91.5215L211.564 120.74C211.703 120.881 211.781 121.07 211.781 121.268C211.781 121.465 211.703 121.655 211.564 121.795Z" fill="white"/>
</g>
<g opacity="0.7">
<path opacity="0.7" d="M177.176 121.788C177.115 121.708 177.071 121.617 177.046 121.52C177.021 121.423 177.015 121.322 177.03 121.223C177.044 121.124 177.079 121.029 177.131 120.944C177.183 120.858 177.252 120.784 177.333 120.725L192.952 107.956C193.101 107.828 193.294 107.763 193.49 107.775C193.686 107.788 193.869 107.877 194 108.024C194.059 108.103 194.103 108.193 194.127 108.289C194.152 108.386 194.157 108.486 194.142 108.584C194.127 108.682 194.093 108.776 194.042 108.861C193.991 108.946 193.923 109.02 193.843 109.078L178.223 121.855C178.075 121.984 177.882 122.048 177.686 122.036C177.49 122.023 177.307 121.934 177.176 121.788Z" fill="white"/>
</g>
<g opacity="0.7">
<path opacity="0.7" d="M197.358 105.278C197.299 105.199 197.255 105.109 197.231 105.012C197.206 104.916 197.201 104.816 197.216 104.718C197.231 104.62 197.265 104.526 197.316 104.441C197.367 104.356 197.435 104.282 197.515 104.224L213.165 91.4318C213.313 91.3034 213.506 91.2385 213.702 91.2511C213.898 91.2636 214.081 91.3528 214.212 91.4992C214.272 91.5784 214.315 91.6688 214.34 91.765C214.364 91.8612 214.369 91.9613 214.354 92.0595C214.34 92.1576 214.306 92.2519 214.254 92.3368C214.203 92.4217 214.135 92.4955 214.055 92.5539L198.406 105.346C198.257 105.474 198.064 105.539 197.868 105.526C197.672 105.514 197.489 105.425 197.358 105.278Z" fill="white"/>
</g>
<path d="M124.491 45.3147H114.766C113.824 45.3187 112.922 45.6956 112.258 46.3629C111.593 47.0303 111.22 47.9337 111.22 48.8755V58.6001C111.22 59.5445 111.595 60.4502 112.263 61.1179C112.931 61.7857 113.837 62.1608 114.781 62.1608H124.506C125.45 62.1608 126.356 61.7857 127.024 61.1179C127.691 60.4502 128.066 59.5445 128.066 58.6001V48.8755C128.066 48.4066 127.974 47.9423 127.794 47.5094C127.614 47.0764 127.35 46.6832 127.018 46.3523C126.686 46.0215 126.292 45.7595 125.858 45.5815C125.424 45.4034 124.96 45.3128 124.491 45.3147ZM119.651 48.7558C121.11 48.7558 121.895 49.9452 121.895 51.4039C121.895 52.8626 121.11 54.052 119.651 54.052C118.192 54.052 117.407 52.87 117.407 51.4039C117.407 49.9377 118.185 48.7558 119.651 48.7558ZM125.493 58.6824H113.801C113.754 58.6825 113.707 58.6733 113.664 58.6554C113.62 58.6374 113.58 58.611 113.547 58.5777L114.295 56.5355C114.528 55.8915 114.954 55.3349 115.515 54.9415C116.076 54.548 116.744 54.3367 117.429 54.3362H121.85C122.536 54.3362 123.206 54.5472 123.768 54.9407C124.33 55.3341 124.757 55.8909 124.992 56.5355L125.74 58.5777C125.708 58.6108 125.67 58.6371 125.627 58.6551C125.585 58.6731 125.539 58.6824 125.493 58.6824Z" fill="#407BFF"/>
<path opacity="0.7" d="M124.491 45.3147H114.766C113.824 45.3187 112.922 45.6956 112.258 46.3629C111.593 47.0303 111.22 47.9337 111.22 48.8755V58.6001C111.22 59.5445 111.595 60.4502 112.263 61.1179C112.931 61.7857 113.837 62.1608 114.781 62.1608H124.506C125.45 62.1608 126.356 61.7857 127.024 61.1179C127.691 60.4502 128.066 59.5445 128.066 58.6001V48.8755C128.066 48.4066 127.974 47.9423 127.794 47.5094C127.614 47.0764 127.35 46.6832 127.018 46.3523C126.686 46.0215 126.292 45.7595 125.858 45.5815C125.424 45.4034 124.96 45.3128 124.491 45.3147ZM119.651 48.7558C121.11 48.7558 121.895 49.9452 121.895 51.4039C121.895 52.8626 121.11 54.052 119.651 54.052C118.192 54.052 117.407 52.87 117.407 51.4039C117.407 49.9377 118.185 48.7558 119.651 48.7558ZM125.493 58.6824H113.801C113.754 58.6825 113.707 58.6733 113.664 58.6554C113.62 58.6374 113.58 58.611 113.547 58.5777L114.295 56.5355C114.528 55.8915 114.954 55.3349 115.515 54.9415C116.076 54.548 116.744 54.3367 117.429 54.3362H121.85C122.536 54.3362 123.206 54.5472 123.768 54.9407C124.33 55.3341 124.757 55.8909 124.992 56.5355L125.74 58.5777C125.708 58.6108 125.67 58.6371 125.627 58.6551C125.585 58.6731 125.539 58.6824 125.493 58.6824Z" fill="white"/>
<path d="M90.0206 85.1709H82.6598C82.0304 85.1699 81.4071 85.293 80.8253 85.5332C80.2436 85.7733 79.715 86.1258 79.2696 86.5705C78.8243 87.0152 78.4709 87.5433 78.2299 88.1246C77.9888 88.7059 77.8647 89.3291 77.8647 89.9584V97.3193C77.8647 98.591 78.3699 99.8106 79.2692 100.71C80.1684 101.609 81.388 102.114 82.6598 102.114H90.0206C90.6499 102.114 91.2731 101.99 91.8544 101.749C92.4357 101.508 92.9639 101.155 93.4085 100.709C93.8532 100.264 94.2057 99.7354 94.4458 99.1537C94.686 98.5719 94.8091 97.9486 94.8081 97.3193V89.9584C94.8091 89.3295 94.6859 88.7065 94.4457 88.1252C94.2054 87.5439 93.8528 87.0157 93.4081 86.5709C92.9633 86.1262 92.4351 85.7736 91.8538 85.5333C91.2726 85.2931 90.6496 85.1699 90.0206 85.1709ZM86.3402 97.6559C86.3402 97.6559 83.348 94.3719 83.348 92.6963C83.348 91.8938 83.6668 91.1241 84.2342 90.5567C84.8017 89.9892 85.5713 89.6704 86.3738 89.6704C87.1763 89.6704 87.946 89.9892 88.5134 90.5567C89.0809 91.1241 89.3997 91.8938 89.3997 92.6963C89.3623 94.3719 86.3402 97.6559 86.3402 97.6559Z" fill="#407BFF"/>
<path d="M86.3402 91.3198C86.0658 91.3184 85.7972 91.3985 85.5685 91.55C85.3398 91.7015 85.1613 91.9175 85.0556 92.1707C84.9499 92.4239 84.9219 92.7027 84.9751 92.9719C85.0282 93.241 85.1602 93.4883 85.3542 93.6823C85.5481 93.8763 85.7954 94.0082 86.0646 94.0614C86.3337 94.1145 86.6126 94.0865 86.8658 93.9808C87.1189 93.8752 87.335 93.6966 87.4865 93.4679C87.638 93.2392 87.7181 92.9706 87.7166 92.6963C87.7166 92.3312 87.5716 91.9811 87.3134 91.723C87.0553 91.4649 86.7052 91.3198 86.3402 91.3198Z" fill="#407BFF"/>
<g opacity="0.7">
<path opacity="0.7" d="M90.0206 85.1709H82.6598C82.0304 85.1699 81.4071 85.293 80.8253 85.5332C80.2436 85.7733 79.715 86.1258 79.2696 86.5705C78.8243 87.0152 78.4709 87.5433 78.2299 88.1246C77.9888 88.7059 77.8647 89.3291 77.8647 89.9584V97.3193C77.8647 98.591 78.3699 99.8106 79.2692 100.71C80.1684 101.609 81.388 102.114 82.6598 102.114H90.0206C90.6499 102.114 91.2731 101.99 91.8544 101.749C92.4357 101.508 92.9639 101.155 93.4085 100.709C93.8532 100.264 94.2057 99.7354 94.4458 99.1537C94.686 98.5719 94.8091 97.9486 94.8081 97.3193V89.9584C94.8091 89.3295 94.6859 88.7065 94.4457 88.1252C94.2054 87.5439 93.8528 87.0157 93.4081 86.5709C92.9633 86.1262 92.4351 85.7736 91.8538 85.5333C91.2726 85.2931 90.6496 85.1699 90.0206 85.1709ZM86.3402 97.6559C86.3402 97.6559 83.348 94.3719 83.348 92.6963C83.348 91.8938 83.6668 91.1241 84.2342 90.5567C84.8017 89.9892 85.5713 89.6704 86.3738 89.6704C87.1763 89.6704 87.946 89.9892 88.5134 90.5567C89.0809 91.1241 89.3997 91.8938 89.3997 92.6963C89.3623 94.3719 86.3402 97.6559 86.3402 97.6559Z" fill="white"/>
<path opacity="0.7" d="M86.3402 91.3198C86.0658 91.3184 85.7972 91.3985 85.5685 91.55C85.3398 91.7015 85.1613 91.9175 85.0556 92.1707C84.9499 92.4239 84.9219 92.7027 84.9751 92.9719C85.0282 93.241 85.1602 93.4883 85.3542 93.6823C85.5481 93.8763 85.7954 94.0082 86.0646 94.0614C86.3337 94.1145 86.6126 94.0865 86.8658 93.9808C87.1189 93.8752 87.335 93.6966 87.4865 93.4679C87.638 93.2392 87.7181 92.9706 87.7166 92.6963C87.7166 92.3312 87.5716 91.9811 87.3134 91.723C87.0553 91.4649 86.7052 91.3198 86.3402 91.3198Z" fill="white"/>
</g>
<path d="M251.63 64.3076L256.559 61.1209L251.63 57.9268V64.3076Z" fill="#407BFF"/>
<path d="M257.98 52.4211H248.585C247.524 52.4211 246.506 52.8428 245.755 53.5933C245.005 54.3439 244.583 55.3618 244.583 56.4232V65.8187C244.585 66.8796 245.007 67.8964 245.757 68.6465C246.507 69.3966 247.524 69.8188 248.585 69.8208H257.98C259.042 69.8208 260.06 69.3992 260.81 68.6486C261.561 67.8981 261.983 66.8802 261.983 65.8187V56.4232C261.984 55.8974 261.881 55.3765 261.68 54.8905C261.479 54.4045 261.184 53.963 260.813 53.5911C260.441 53.2193 259.999 52.9246 259.513 52.7238C259.027 52.523 258.506 52.4202 257.98 52.4211ZM253.283 67.3822C252.044 67.3822 250.833 67.0148 249.803 66.3264C248.774 65.6381 247.971 64.6598 247.497 63.5153C247.024 62.3708 246.9 61.1115 247.142 59.8967C247.385 58.682 247.982 57.5664 248.858 56.691C249.734 55.8157 250.851 55.2199 252.066 54.9792C253.281 54.7385 254.54 54.8635 255.684 55.3386C256.828 55.8136 257.805 56.6173 258.492 57.6479C259.179 58.6785 259.545 59.8898 259.544 61.1285C259.543 61.9497 259.38 62.7627 259.065 63.5211C258.75 64.2794 258.288 64.9683 257.707 65.5483C257.126 66.1283 256.436 66.5882 255.676 66.9015C254.917 67.2149 254.104 67.3757 253.283 67.3747V67.3822Z" fill="#407BFF"/>
<g opacity="0.7">
<path opacity="0.7" d="M251.63 64.3076L256.559 61.1209L251.63 57.9268V64.3076Z" fill="white"/>
<path opacity="0.7" d="M257.98 52.4211H248.585C247.524 52.4211 246.506 52.8428 245.755 53.5933C245.005 54.3439 244.583 55.3618 244.583 56.4232V65.8187C244.585 66.8796 245.007 67.8964 245.757 68.6465C246.507 69.3966 247.524 69.8188 248.585 69.8208H257.98C259.042 69.8208 260.06 69.3992 260.81 68.6486C261.561 67.8981 261.983 66.8802 261.983 65.8187V56.4232C261.984 55.8974 261.881 55.3765 261.68 54.8905C261.479 54.4045 261.184 53.963 260.813 53.5911C260.441 53.2193 259.999 52.9246 259.513 52.7238C259.027 52.523 258.506 52.4202 257.98 52.4211ZM253.283 67.3822C252.044 67.3822 250.833 67.0148 249.803 66.3264C248.774 65.6381 247.971 64.6598 247.497 63.5153C247.024 62.3708 246.9 61.1115 247.142 59.8967C247.385 58.682 247.982 57.5664 248.858 56.691C249.734 55.8157 250.851 55.2199 252.066 54.9792C253.281 54.7385 254.54 54.8635 255.684 55.3386C256.828 55.8136 257.805 56.6173 258.492 57.6479C259.179 58.6785 259.545 59.8898 259.544 61.1285C259.543 61.9497 259.38 62.7627 259.065 63.5211C258.75 64.2794 258.288 64.9683 257.707 65.5483C257.126 66.1283 256.436 66.5882 255.676 66.9015C254.917 67.2149 254.104 67.3757 253.283 67.3747V67.3822Z" fill="white"/>
</g>
<path d="M267.204 88.4547C267.204 88.2602 267.204 88.0657 267.204 87.8787L268.334 87.2503C268.251 86.7154 268.111 86.1912 267.915 85.6869H266.628C266.464 85.3357 266.269 85.0002 266.044 84.6845L266.71 83.5848C266.369 83.1627 265.986 82.7767 265.566 82.4329L264.459 83.0986C264.144 82.8781 263.811 82.6854 263.464 82.5226V81.2285C262.958 81.0373 262.434 80.897 261.9 80.8096L261.272 81.9391C261.085 81.9391 260.89 81.9391 260.696 81.9391C260.501 81.9391 260.314 81.9391 260.12 81.9391L259.492 80.8096C258.958 80.8988 258.435 81.0391 257.928 81.2285V82.5226C257.58 82.6837 257.246 82.8765 256.933 83.0986L255.826 82.4329C255.402 82.7746 255.016 83.1608 254.674 83.5848L255.34 84.6845C255.12 85.0021 254.928 85.3374 254.764 85.6869H253.477C253.282 86.192 253.139 86.7159 253.051 87.2503L254.18 87.8787C254.18 88.0657 254.18 88.2602 254.18 88.4547C254.18 88.6491 254.18 88.8436 254.18 89.0307L253.051 89.659C253.138 90.1936 253.281 90.7176 253.477 91.2225H254.764C254.928 91.5719 255.12 91.9072 255.34 92.2248L254.674 93.3319C255.018 93.7518 255.404 94.1353 255.826 94.4765L256.933 93.8107C257.245 94.0355 257.578 94.2285 257.928 94.3867V95.6808C258.434 95.8736 258.957 96.014 259.492 96.0997L260.12 94.9702C260.314 94.9702 260.501 94.9702 260.696 94.9702C260.89 94.9702 261.085 94.9702 261.272 94.9702L261.9 96.0997C262.435 96.0159 262.959 95.8755 263.464 95.6808V94.3867C263.813 94.2268 264.146 94.034 264.459 93.8107L265.566 94.4765C265.984 94.1333 266.367 93.7499 266.71 93.3319L266.044 92.2248C266.269 91.9091 266.464 91.5736 266.628 91.2225H267.915C268.112 90.7184 268.252 90.1941 268.334 89.659L267.204 89.0307C267.189 88.8212 267.204 88.6491 267.204 88.4547ZM260.681 92.8831C259.805 92.8831 258.949 92.6234 258.221 92.1368C257.492 91.6502 256.925 90.9585 256.59 90.1494C256.254 89.3402 256.167 88.4497 256.338 87.5907C256.508 86.7317 256.93 85.9426 257.55 85.3233C258.169 84.7039 258.958 84.2822 259.817 84.1113C260.676 83.9404 261.566 84.0281 262.376 84.3633C263.185 84.6985 263.876 85.2661 264.363 85.9943C264.85 86.7226 265.109 87.5788 265.109 88.4547C265.109 89.6292 264.643 90.7556 263.812 91.5861C262.982 92.4166 261.855 92.8831 260.681 92.8831Z" fill="#407BFF"/>
<path opacity="0.7" d="M267.204 88.4547C267.204 88.2602 267.204 88.0657 267.204 87.8787L268.334 87.2503C268.251 86.7154 268.111 86.1912 267.915 85.6869H266.628C266.464 85.3357 266.269 85.0002 266.044 84.6845L266.71 83.5848C266.369 83.1627 265.986 82.7767 265.566 82.4329L264.459 83.0986C264.144 82.8781 263.811 82.6854 263.464 82.5226V81.2285C262.958 81.0373 262.434 80.897 261.9 80.8096L261.272 81.9391C261.085 81.9391 260.89 81.9391 260.696 81.9391C260.501 81.9391 260.314 81.9391 260.12 81.9391L259.492 80.8096C258.958 80.8988 258.435 81.0391 257.928 81.2285V82.5226C257.58 82.6837 257.246 82.8765 256.933 83.0986L255.826 82.4329C255.402 82.7746 255.016 83.1608 254.674 83.5848L255.34 84.6845C255.12 85.0021 254.928 85.3374 254.764 85.6869H253.477C253.282 86.192 253.139 86.7159 253.051 87.2503L254.18 87.8787C254.18 88.0657 254.18 88.2602 254.18 88.4547C254.18 88.6491 254.18 88.8436 254.18 89.0307L253.051 89.659C253.138 90.1936 253.281 90.7176 253.477 91.2225H254.764C254.928 91.5719 255.12 91.9072 255.34 92.2248L254.674 93.3319C255.018 93.7518 255.404 94.1353 255.826 94.4765L256.933 93.8107C257.245 94.0355 257.578 94.2285 257.928 94.3867V95.6808C258.434 95.8736 258.957 96.014 259.492 96.0997L260.12 94.9702C260.314 94.9702 260.501 94.9702 260.696 94.9702C260.89 94.9702 261.085 94.9702 261.272 94.9702L261.9 96.0997C262.435 96.0159 262.959 95.8755 263.464 95.6808V94.3867C263.813 94.2268 264.146 94.034 264.459 93.8107L265.566 94.4765C265.984 94.1333 266.367 93.7499 266.71 93.3319L266.044 92.2248C266.269 91.9091 266.464 91.5736 266.628 91.2225H267.915C268.112 90.7184 268.252 90.1941 268.334 89.659L267.204 89.0307C267.189 88.8212 267.204 88.6491 267.204 88.4547ZM260.681 92.8831C259.805 92.8831 258.949 92.6234 258.221 92.1368C257.492 91.6502 256.925 90.9585 256.59 90.1494C256.254 89.3402 256.167 88.4497 256.338 87.5907C256.508 86.7317 256.93 85.9426 257.55 85.3233C258.169 84.7039 258.958 84.2822 259.817 84.1113C260.676 83.9404 261.566 84.0281 262.376 84.3633C263.185 84.6985 263.876 85.2661 264.363 85.9943C264.85 86.7226 265.109 87.5788 265.109 88.4547C265.109 89.6292 264.643 90.7556 263.812 91.5861C262.982 92.4166 261.855 92.8831 260.681 92.8831Z" fill="white"/>
<path d="M250.156 110.694C250.156 110.403 250.156 110.118 250.118 109.834L251.809 108.899C251.682 108.096 251.471 107.309 251.181 106.55L249.251 106.587C249.007 106.064 248.717 105.563 248.383 105.091L249.378 103.438C248.868 102.809 248.294 102.235 247.665 101.725L246.012 102.713C245.538 102.384 245.038 102.096 244.516 101.852V99.9223C243.759 99.6308 242.975 99.4202 242.174 99.2939L241.239 100.985C240.955 100.985 240.671 100.985 240.379 100.985C240.087 100.985 239.803 100.985 239.519 100.985L238.606 99.2939C237.806 99.4221 237.021 99.6326 236.265 99.9223V101.852C235.742 102.096 235.242 102.384 234.768 102.713L233.153 101.725C232.521 102.235 231.944 102.809 231.432 103.438L232.427 105.091C232.096 105.563 231.808 106.064 231.567 106.587L229.637 106.55C229.343 107.308 229.132 108.096 229.008 108.899L230.699 109.834C230.639 110.406 230.639 110.983 230.699 111.555L229.008 112.497C229.133 113.298 229.344 114.083 229.637 114.838L231.567 114.801C231.806 115.325 232.094 115.826 232.427 116.297L231.432 117.95C231.944 118.58 232.521 119.154 233.153 119.663L234.806 118.676C235.277 119.007 235.778 119.295 236.302 119.536V121.466C237.058 121.759 237.843 121.97 238.643 122.095L239.586 120.404C240.158 120.464 240.734 120.464 241.306 120.404L242.241 122.095C243.043 121.972 243.828 121.761 244.583 121.466V119.536C245.106 119.295 245.607 119.007 246.079 118.676L247.732 119.663C248.361 119.154 248.936 118.58 249.445 117.95L248.45 116.297C248.785 115.827 249.076 115.326 249.318 114.801L251.248 114.838C251.538 114.082 251.748 113.297 251.876 112.497L250.186 111.555C250.141 111.263 250.156 110.986 250.156 110.694ZM240.431 114.539C239.671 114.539 238.927 114.314 238.295 113.891C237.663 113.469 237.17 112.868 236.879 112.166C236.588 111.463 236.512 110.69 236.66 109.944C236.808 109.198 237.175 108.513 237.712 107.975C238.25 107.438 238.935 107.071 239.681 106.923C240.427 106.775 241.2 106.851 241.903 107.142C242.605 107.433 243.206 107.926 243.628 108.558C244.051 109.19 244.276 109.934 244.276 110.694C244.276 111.201 244.176 111.703 243.981 112.171C243.787 112.639 243.502 113.064 243.142 113.421C242.783 113.778 242.356 114.061 241.887 114.253C241.418 114.445 240.916 114.542 240.409 114.539H240.431Z" fill="#407BFF"/>
<path opacity="0.7" d="M250.156 110.694C250.156 110.403 250.156 110.118 250.118 109.834L251.809 108.899C251.682 108.096 251.471 107.309 251.181 106.55L249.251 106.587C249.007 106.064 248.717 105.563 248.383 105.091L249.378 103.438C248.868 102.809 248.294 102.235 247.665 101.725L246.012 102.713C245.538 102.384 245.038 102.096 244.516 101.852V99.9223C243.759 99.6308 242.975 99.4202 242.174 99.2939L241.239 100.985C240.955 100.985 240.671 100.985 240.379 100.985C240.087 100.985 239.803 100.985 239.519 100.985L238.606 99.2939C237.806 99.4221 237.021 99.6326 236.265 99.9223V101.852C235.742 102.096 235.242 102.384 234.768 102.713L233.153 101.725C232.521 102.235 231.944 102.809 231.432 103.438L232.427 105.091C232.096 105.563 231.808 106.064 231.567 106.587L229.637 106.55C229.343 107.308 229.132 108.096 229.008 108.899L230.699 109.834C230.639 110.406 230.639 110.983 230.699 111.555L229.008 112.497C229.133 113.298 229.344 114.083 229.637 114.838L231.567 114.801C231.806 115.325 232.094 115.826 232.427 116.297L231.432 117.95C231.944 118.58 232.521 119.154 233.153 119.663L234.806 118.676C235.277 119.007 235.778 119.295 236.302 119.536V121.466C237.058 121.759 237.843 121.97 238.643 122.095L239.586 120.404C240.158 120.464 240.734 120.464 241.306 120.404L242.241 122.095C243.043 121.972 243.828 121.761 244.583 121.466V119.536C245.106 119.295 245.607 119.007 246.079 118.676L247.732 119.663C248.361 119.154 248.936 118.58 249.445 117.95L248.45 116.297C248.785 115.827 249.076 115.326 249.318 114.801L251.248 114.838C251.538 114.082 251.748 113.297 251.876 112.497L250.186 111.555C250.141 111.263 250.156 110.986 250.156 110.694ZM240.431 114.539C239.671 114.539 238.927 114.314 238.295 113.891C237.663 113.469 237.17 112.868 236.879 112.166C236.588 111.463 236.512 110.69 236.66 109.944C236.808 109.198 237.175 108.513 237.712 107.975C238.25 107.438 238.935 107.071 239.681 106.923C240.427 106.775 241.2 106.851 241.903 107.142C242.605 107.433 243.206 107.926 243.628 108.558C244.051 109.19 244.276 109.934 244.276 110.694C244.276 111.201 244.176 111.703 243.981 112.171C243.787 112.639 243.502 113.064 243.142 113.421C242.783 113.778 242.356 114.061 241.887 114.253C241.418 114.445 240.916 114.542 240.409 114.539H240.431Z" fill="white"/>
<path d="M222.68 67.3222V71.242L218.94 73.2094C218.794 73.2874 218.673 73.4034 218.588 73.545C218.503 73.6866 218.459 73.8485 218.459 74.0135C218.459 74.1785 218.503 74.3404 218.588 74.4821C218.673 74.6237 218.794 74.7396 218.94 74.8177L222.68 76.785V80.7048C222.68 81.1234 222.846 81.5249 223.142 81.8209C223.438 82.1169 223.84 82.2832 224.258 82.2832H237.641C238.06 82.2832 238.463 82.1172 238.76 81.8214C239.057 81.5256 239.225 81.1241 239.227 80.7048V67.3222C239.227 66.9016 239.06 66.4982 238.762 66.2008C238.465 65.9034 238.062 65.7363 237.641 65.7363H224.236C223.82 65.7422 223.423 65.9122 223.132 66.2091C222.84 66.5061 222.678 66.9061 222.68 67.3222Z" fill="#407BFF"/>
<g opacity="0.9">
<path opacity="0.9" d="M227.258 71.4067H234.866C235.114 71.4067 235.352 71.3082 235.527 71.1329C235.702 70.9575 235.801 70.7197 235.801 70.4717C235.801 70.2237 235.702 69.9859 235.527 69.8105C235.352 69.6351 235.114 69.5366 234.866 69.5366H227.258C227.01 69.5366 226.772 69.6351 226.597 69.8105C226.421 69.9859 226.323 70.2237 226.323 70.4717C226.323 70.7197 226.421 70.9575 226.597 71.1329C226.772 71.3082 227.01 71.4067 227.258 71.4067Z" fill="white"/>
<path opacity="0.9" d="M234.866 73.1123H227.258C227.01 73.1123 226.772 73.2108 226.597 73.3862C226.421 73.5615 226.323 73.7994 226.323 74.0474C226.323 74.2954 226.421 74.5332 226.597 74.7086C226.772 74.8839 227.01 74.9824 227.258 74.9824H234.866C235.114 74.9824 235.352 74.8839 235.527 74.7086C235.702 74.5332 235.801 74.2954 235.801 74.0474C235.801 73.7994 235.702 73.5615 235.527 73.3862C235.352 73.2108 235.114 73.1123 234.866 73.1123Z" fill="white"/>
<path opacity="0.9" d="M234.866 76.6206H227.258C227.01 76.6206 226.772 76.7191 226.597 76.8945C226.421 77.0698 226.323 77.3077 226.323 77.5557C226.323 77.8037 226.421 78.0415 226.597 78.2169C226.772 78.3922 227.01 78.4907 227.258 78.4907H234.866C235.114 78.4907 235.352 78.3922 235.527 78.2169C235.702 78.0415 235.801 77.8037 235.801 77.5557C235.801 77.3077 235.702 77.0698 235.527 76.8945C235.352 76.7191 235.114 76.6206 234.866 76.6206Z" fill="white"/>
</g>
<path d="M147.052 61.1434H150.246L151.892 64.2628C152 64.4662 152.162 64.6363 152.36 64.7548C152.557 64.8734 152.783 64.9361 153.014 64.9361C153.244 64.9361 153.471 64.8734 153.668 64.7548C153.866 64.6363 154.028 64.4662 154.136 64.2628L155.782 61.1434H158.976C159.279 61.1434 159.579 61.0836 159.859 60.9674C160.139 60.8511 160.394 60.6807 160.608 60.466C160.822 60.2512 160.991 59.9964 161.107 59.716C161.222 59.4356 161.281 59.1352 161.28 58.832V46.9305C161.28 46.3194 161.037 45.7334 160.605 45.3013C160.173 44.8692 159.587 44.6265 158.976 44.6265H147.052C146.749 44.6255 146.449 44.6844 146.169 44.7998C145.889 44.9153 145.635 45.085 145.421 45.2991C145.206 45.5132 145.037 45.7676 144.921 46.0476C144.806 46.3276 144.747 46.6276 144.748 46.9305V58.8993C144.764 59.4999 145.013 60.0707 145.444 60.4899C145.874 60.9091 146.451 61.1436 147.052 61.1434Z" fill="#407BFF"/>
<path opacity="0.9" d="M153.021 48.1946L149.341 50.349V56.6476H152.079V52.4211H153.971V56.6476H156.709V50.349L153.021 48.1946Z" fill="white"/>
<path d="M182.884 232.29H180.041L178.208 228.804C178.117 228.635 177.982 228.494 177.818 228.396C177.653 228.298 177.465 228.246 177.273 228.246C177.082 228.246 176.893 228.298 176.729 228.396C176.564 228.494 176.429 228.635 176.338 228.804L174.505 232.29H171.588C170.892 232.29 170.224 232.567 169.731 233.059C169.239 233.551 168.962 234.219 168.962 234.916V246.211C168.962 246.908 169.239 247.575 169.731 248.068C170.224 248.56 170.892 248.837 171.588 248.837H182.884C183.58 248.837 184.248 248.56 184.74 248.068C185.233 247.575 185.509 246.908 185.509 246.211V234.916C185.509 234.219 185.233 233.551 184.74 233.059C184.248 232.567 183.58 232.29 182.884 232.29Z" fill="#407BFF"/>
<path opacity="0.9" d="M178.837 236.606C178.288 236.057 177.595 235.676 176.837 235.507C176.08 235.338 175.29 235.388 174.56 235.652C173.83 235.916 173.191 236.382 172.716 236.996C172.242 237.61 171.952 238.346 171.881 239.119C171.81 239.892 171.96 240.669 172.314 241.359C172.669 242.049 173.213 242.624 173.882 243.017C174.551 243.409 175.319 243.603 176.094 243.575C176.87 243.547 177.621 243.299 178.261 242.86C178.292 243.045 178.378 243.217 178.508 243.354L181.051 245.89C181.223 246.061 181.455 246.158 181.698 246.158C181.941 246.158 182.173 246.061 182.345 245.89C182.517 245.718 182.613 245.485 182.613 245.242C182.613 245 182.517 244.767 182.345 244.595L179.809 242.06C179.673 241.925 179.497 241.836 179.308 241.805C179.846 241.019 180.093 240.07 180.007 239.121C179.921 238.172 179.507 237.283 178.837 236.606ZM177.969 241.521C177.568 241.921 177.058 242.194 176.502 242.304C175.946 242.414 175.37 242.357 174.847 242.14C174.324 241.923 173.877 241.556 173.562 241.085C173.247 240.614 173.079 240.06 173.079 239.494C173.079 238.927 173.247 238.373 173.562 237.902C173.877 237.431 174.324 237.064 174.847 236.847C175.37 236.63 175.946 236.573 176.502 236.683C177.058 236.794 177.568 237.066 177.969 237.466C178.235 237.733 178.447 238.049 178.591 238.396C178.735 238.744 178.809 239.117 178.809 239.494C178.809 239.87 178.735 240.243 178.591 240.591C178.447 240.939 178.235 241.255 177.969 241.521Z" fill="white"/>
<path d="M303.686 157.066C303.686 157.066 297.59 172.177 291.62 173.807C285.651 175.438 276.659 174.114 276.659 174.114L273.877 174.862L271.146 174.458H271.049L267.974 174.383C267.864 174.393 267.752 174.37 267.654 174.318C267.555 174.266 267.474 174.187 267.419 174.09C267.364 173.994 267.338 173.883 267.343 173.772C267.349 173.661 267.386 173.554 267.451 173.463L268.55 171.967C268.643 171.844 268.771 171.753 268.917 171.705L271.849 170.763C271.965 170.737 272.085 170.737 272.201 170.763L276.689 171.473C276.689 171.473 289.144 169.431 290.416 168.279C291.688 167.127 295.435 155.046 295.435 155.046L303.686 157.066Z" fill="#EEC1BB"/>
<path opacity="0.1" d="M276.966 171.376L276.674 171.421L272.186 170.71C272.07 170.684 271.95 170.684 271.834 170.71L268.902 171.653C268.756 171.7 268.628 171.792 268.535 171.915L267.436 173.411C267.371 173.501 267.334 173.609 267.328 173.72C267.323 173.831 267.349 173.941 267.404 174.038C267.459 174.135 267.54 174.214 267.639 174.266C267.737 174.317 267.849 174.34 267.959 174.331L271.034 174.406H271.131L272.964 174.675C274.527 173.887 275.895 172.76 276.966 171.376Z" fill="black"/>
<path d="M307.367 142.097C302.938 140.646 296.707 143.975 294.321 157.919L303.514 160.634C303.514 160.634 313.695 144.177 307.367 142.097Z" fill="#407BFF"/>
<path d="M281.604 123.875C281.604 124.339 281.851 124.705 282.15 124.705C282.449 124.705 282.711 124.309 282.689 123.86C282.666 123.411 282.442 123.037 282.143 123.045C281.843 123.052 281.604 123.419 281.604 123.875Z" fill="#263238"/>
<path d="M283.414 124.331L281.237 127.929C281.237 127.929 281.985 128.782 283.624 128.154L283.414 124.331Z" fill="#D4827D"/>
<path d="M283.826 120.987C283.799 121.018 283.765 121.04 283.727 121.053C283.689 121.067 283.648 121.07 283.609 121.062C283.314 121.012 283.012 121.032 282.727 121.122C282.442 121.212 282.183 121.368 281.97 121.578C281.925 121.621 281.865 121.645 281.802 121.645C281.74 121.645 281.68 121.621 281.634 121.578C281.591 121.531 281.567 121.47 281.567 121.406C281.567 121.343 281.591 121.281 281.634 121.234C281.898 120.964 282.224 120.762 282.584 120.646C282.944 120.53 283.326 120.503 283.698 120.568C283.73 120.572 283.76 120.582 283.788 120.598C283.816 120.613 283.84 120.634 283.86 120.659C283.879 120.684 283.893 120.713 283.902 120.744C283.91 120.774 283.912 120.806 283.908 120.838C283.896 120.895 283.868 120.947 283.826 120.987Z" fill="#263238"/>
<path d="M299.206 120.613C299.542 126.695 299.819 129.268 297.133 132.724C292.847 136.427 285.546 137.018 283.392 131.161C281.454 125.924 281.23 116.851 286.855 113.716C287.809 113.185 288.859 112.846 289.944 112.721C291.029 112.595 292.128 112.684 293.179 112.984C294.229 113.283 295.21 113.787 296.066 114.466C296.922 115.145 297.635 115.985 298.166 116.94C298.788 118.069 299.144 119.326 299.206 120.613Z" fill="#EEC1BB"/>
<path d="M290.73 133.921L292.271 142.935L299.782 141.2L297.156 131.999L290.73 133.921Z" fill="#EEC1BB"/>
<path d="M285.322 121.062C285.703 117.113 284.342 121.676 282.517 116.462C280.691 111.248 289.316 107.014 290.693 107.986C292.069 108.959 291.284 110.447 295.847 111.293C297.092 111.49 298.222 112.135 299.026 113.106C299.83 114.076 300.253 115.307 300.215 116.566C300.215 116.566 302.841 117.778 301.906 123.419C301.22 127.033 299.681 130.431 297.418 133.33C297.418 133.33 295.69 131.55 292.929 133.188C291.852 132.485 290.941 131.556 290.259 130.465C289.032 128.625 288.651 126.875 286.967 126.725C283.452 126.403 285.195 122.364 285.322 121.062Z" fill="#263238"/>
<path d="M299.729 117.247C299.729 117.247 303.469 114.958 301.809 112.557C300.148 110.156 300.949 115.205 299.729 117.247Z" fill="#263238"/>
<path d="M286.391 123.359C285.562 124.286 285.134 125.505 285.202 126.747C285.307 128.393 286.923 128.685 288.194 127.787C289.466 126.89 290.67 125.139 289.937 123.695C289.775 123.38 289.535 123.111 289.242 122.913C288.948 122.714 288.609 122.593 288.256 122.559C287.903 122.526 287.548 122.581 287.222 122.721C286.896 122.861 286.61 123.08 286.391 123.359Z" fill="#FFC3BD"/>
<path opacity="0.1" d="M290.872 134.774L291.486 138.35C291.432 137.464 291.553 136.577 291.844 135.739C292.134 134.9 292.587 134.128 293.176 133.465C292.718 133.494 292.273 133.627 291.874 133.854C291.474 134.081 291.132 134.395 290.872 134.774Z" fill="black"/>
<path d="M238.067 158.023H235.92V170.688H238.067V158.023Z" fill="#407BFF"/>
<path opacity="0.7" d="M238.067 158.023H235.92V170.688H238.067V158.023Z" fill="white"/>
<path d="M223.316 132.874H217.967C217.005 132.874 216.082 133.256 215.402 133.937C214.721 134.617 214.339 135.54 214.339 136.502V161.285C214.339 161.761 214.433 162.233 214.615 162.673C214.798 163.114 215.065 163.514 215.402 163.85C215.739 164.187 216.139 164.455 216.579 164.637C217.019 164.819 217.491 164.913 217.967 164.913H223.316V132.874Z" fill="#407BFF"/>
<path d="M256.028 132.874H219.837C217.834 132.874 216.209 134.498 216.209 136.502V161.278C216.209 163.281 217.834 164.906 219.837 164.906H256.028C258.032 164.906 259.656 163.281 259.656 161.278V136.502C259.656 134.498 258.032 132.874 256.028 132.874Z" fill="#407BFF"/>
<path opacity="0.5" d="M256.028 132.874H219.837C217.834 132.874 216.209 134.498 216.209 136.502V161.278C216.209 163.281 217.834 164.906 219.837 164.906H256.028C258.032 164.906 259.656 163.281 259.656 161.278V136.502C259.656 134.498 258.032 132.874 256.028 132.874Z" fill="white"/>
<path d="M256.028 134.37H219.837C218.66 134.37 217.705 135.325 217.705 136.502V161.278C217.705 162.455 218.66 163.409 219.837 163.409H256.028C257.205 163.409 258.16 162.455 258.16 161.278V136.502C258.16 135.325 257.205 134.37 256.028 134.37Z" fill="#263238"/>
<path d="M229.181 175.999C229.243 173.969 230.094 172.043 231.553 170.629C233.011 169.215 234.963 168.424 236.994 168.424C239.025 168.424 240.977 169.215 242.435 170.629C243.894 172.043 244.744 173.969 244.807 175.999H229.181Z" fill="#407BFF"/>
<path d="M247.62 173.336H231.993V175.872H263.247V174.832L247.62 173.336Z" fill="#407BFF"/>
<path opacity="0.8" d="M247.62 173.336H231.993V175.872H263.247V174.832L247.62 173.336Z" fill="white"/>
<path d="M247.62 175.872H231.993V173.336L247.62 174.832V175.872Z" fill="#407BFF"/>
<path opacity="0.6" d="M247.62 175.872H231.993V173.336L247.62 174.832V175.872Z" fill="white"/>
<path d="M282.075 263.177H249.842C249.199 263.178 248.562 263.052 247.967 262.807C247.373 262.561 246.833 262.201 246.377 261.747C245.922 261.292 245.561 260.753 245.315 260.159C245.069 259.565 244.942 258.928 244.942 258.285V184.168C244.942 183.525 245.069 182.888 245.315 182.294C245.561 181.7 245.922 181.16 246.377 180.706C246.833 180.251 247.373 179.891 247.967 179.646C248.562 179.4 249.199 179.275 249.842 179.276H282.075C282.422 179.276 282.755 179.414 283.001 179.659C283.246 179.905 283.384 180.238 283.384 180.585C283.384 180.932 283.246 181.265 283.001 181.51C282.755 181.756 282.422 181.894 282.075 181.894H249.842C249.544 181.889 249.248 181.943 248.971 182.054C248.695 182.164 248.443 182.329 248.231 182.538C248.018 182.747 247.85 182.996 247.734 183.27C247.619 183.545 247.56 183.84 247.56 184.138V258.255C247.56 258.553 247.619 258.848 247.734 259.122C247.85 259.397 248.018 259.646 248.231 259.855C248.443 260.064 248.695 260.228 248.971 260.339C249.248 260.45 249.544 260.504 249.842 260.499H282.075C282.422 260.499 282.755 260.637 283.001 260.882C283.246 261.128 283.384 261.461 283.384 261.808C283.392 261.985 283.364 262.162 283.302 262.327C283.24 262.493 283.145 262.645 283.023 262.773C282.9 262.901 282.753 263.002 282.59 263.072C282.428 263.141 282.252 263.177 282.075 263.177Z" fill="#263238"/>
<g opacity="0.5">
<path opacity="0.5" d="M282.075 263.177H249.842C249.199 263.178 248.562 263.052 247.967 262.807C247.373 262.561 246.833 262.201 246.377 261.747C245.922 261.292 245.561 260.753 245.315 260.159C245.069 259.565 244.942 258.928 244.942 258.285V184.168C244.942 183.525 245.069 182.888 245.315 182.294C245.561 181.7 245.922 181.16 246.377 180.706C246.833 180.251 247.373 179.891 247.967 179.646C248.562 179.4 249.199 179.275 249.842 179.276H282.075C282.422 179.276 282.755 179.414 283.001 179.659C283.246 179.905 283.384 180.238 283.384 180.585C283.384 180.932 283.246 181.265 283.001 181.51C282.755 181.756 282.422 181.894 282.075 181.894H249.842C249.544 181.889 249.248 181.943 248.971 182.054C248.695 182.164 248.443 182.329 248.231 182.538C248.018 182.747 247.85 182.996 247.734 183.27C247.619 183.545 247.56 183.84 247.56 184.138V258.255C247.56 258.553 247.619 258.848 247.734 259.122C247.85 259.397 248.018 259.646 248.231 259.855C248.443 260.064 248.695 260.228 248.971 260.339C249.248 260.45 249.544 260.504 249.842 260.499H282.075C282.422 260.499 282.755 260.637 283.001 260.882C283.246 261.128 283.384 261.461 283.384 261.808C283.392 261.985 283.364 262.162 283.302 262.327C283.24 262.493 283.145 262.645 283.023 262.773C282.9 262.901 282.753 263.002 282.59 263.072C282.428 263.141 282.252 263.177 282.075 263.177Z" fill="white"/>
</g>
<path d="M249.715 175.872H203.941V179.709H249.715V175.872Z" fill="#407BFF"/>
<path opacity="0.2" d="M249.715 175.872H203.941V179.709H249.715V175.872Z" fill="white"/>
<path d="M286.661 175.872H247.62V179.709H286.661V175.872Z" fill="#407BFF"/>
<path opacity="0.5" d="M286.661 175.872H247.62V179.709H286.661V175.872Z" fill="white"/>
<path d="M272.971 235.985L275.133 257.843H269.957L264.773 236.554L272.971 235.985Z" fill="#EEC1BB"/>
<path d="M269.471 256.385L276.076 256.497C276.196 256.5 276.313 256.544 276.405 256.621C276.497 256.699 276.561 256.805 276.585 256.923L277.692 262.317C277.738 262.546 277.693 262.784 277.566 262.98C277.438 263.176 277.239 263.314 277.011 263.364H276.824C274.438 263.282 272.336 263.117 269.343 263.065C265.85 263.005 266.725 263.439 262.611 263.431C260.135 263.431 259.731 260.596 260.778 260.477C265.603 259.953 266.127 258.509 268.012 256.819C268.428 256.5 268.948 256.346 269.471 256.385Z" fill="#263238"/>
<path opacity="0.1" d="M274.572 252.136L272.971 235.985L264.773 236.554L268.565 252.136H274.572Z" fill="black"/>
<path d="M308.414 185.589L287.184 186.337C287.184 186.337 258.586 196.339 257.838 204.021C257.016 211.935 266.62 248.298 266.62 248.298H275.156C275.156 248.298 272.799 221.615 271.902 213.447C271.004 205.278 301.667 207.978 306.993 201.014C311.863 194.626 308.414 185.589 308.414 185.589Z" fill="#263238"/>
<path opacity="0.2" d="M308.414 185.589L287.184 186.337C287.184 186.337 258.586 196.339 257.838 204.021C257.016 211.935 266.62 248.298 266.62 248.298H275.156C275.156 248.298 272.799 221.615 271.902 213.447C271.004 205.278 301.667 207.978 306.993 201.014C311.863 194.626 308.414 185.589 308.414 185.589Z" fill="black"/>
<path d="M276.577 247.101L276.764 250.116H266.217L265.184 247.101H276.577Z" fill="#407BFF"/>
<path d="M253.215 237.025L253.784 257.843H248.697L245.683 237.025H253.215Z" fill="#EEC1BB"/>
<path d="M247.994 256.385L254.599 256.497C254.72 256.5 254.836 256.543 254.928 256.621C255.021 256.698 255.084 256.805 255.108 256.923L256.215 262.317C256.262 262.546 256.217 262.784 256.089 262.98C255.962 263.176 255.763 263.314 255.534 263.364H255.347C252.961 263.282 250.859 263.117 247.867 263.065C244.366 263.005 245.249 263.439 241.134 263.431C238.658 263.431 238.254 260.596 239.302 260.477C244.127 259.953 244.65 258.509 246.535 256.819C246.951 256.499 247.471 256.344 247.994 256.385Z" fill="#263238"/>
<path opacity="0.1" d="M253.627 252.121L253.215 237.025H245.683L247.874 252.136C249.513 252.143 251.764 252.128 253.627 252.121Z" fill="black"/>
<path d="M299.183 187.347C299.183 187.347 300.949 203.49 284.529 204.246C268.109 205.001 255.287 206.879 254.913 212.721C254.539 218.563 254.913 248.328 254.913 248.328H245.989C245.989 248.328 242.518 229.507 241.164 217.838C239.848 206.505 237.424 198.284 249.071 194.446C261.436 190.362 283.414 186.592 283.414 186.592L299.243 185.589L299.183 187.347Z" fill="#263238"/>
<path d="M256.23 247.101L255.669 250.116H245.87L244.837 247.101H256.23Z" fill="#407BFF"/>
<path d="M302.721 141.035C302.721 141.035 302.721 137.4 295.368 137.819C287.558 138.267 289.032 141.753 289.032 141.753L302.721 141.035Z" fill="#407BFF"/>
<path opacity="0.3" d="M302.721 141.035C302.721 141.035 302.721 137.4 295.368 137.819C287.558 138.267 289.032 141.753 289.032 141.753L302.721 141.035Z" fill="black"/>
<path d="M309.574 157.343C309.08 164.532 309.252 186.158 309.252 186.158C309.252 186.158 293.543 187.19 281.215 186.786L279.786 145.187C279.792 144.451 280.019 143.735 280.438 143.13C280.857 142.526 281.448 142.062 282.135 141.798C285.621 140.444 293.805 138.911 306.604 140.594C311.017 141.185 310.157 148.845 309.574 157.343Z" fill="#407BFF"/>
<path d="M282.307 157.066C282.307 157.066 276.203 172.177 270.241 173.807C264.279 175.438 255.28 174.114 255.28 174.114L252.497 174.862L249.774 174.458H249.677L246.595 174.383C246.484 174.393 246.373 174.37 246.275 174.318C246.176 174.266 246.095 174.187 246.04 174.09C245.985 173.994 245.958 173.883 245.964 173.772C245.97 173.661 246.007 173.554 246.071 173.463L247.179 171.967C247.271 171.844 247.399 171.753 247.545 171.705L250.47 170.763C250.588 170.737 250.711 170.737 250.829 170.763L255.317 171.473C255.317 171.473 267.772 169.431 269.037 168.279C270.301 167.127 274.064 155.046 274.064 155.046L282.307 157.066Z" fill="#EEC1BB"/>
<path opacity="0.1" d="M282.15 150.034C282.15 150.034 281.2 151.164 280.048 152.795L280.459 164.838C285.045 162.811 286.863 151.007 286.863 151.007L283.871 148.897L282.15 150.034Z" fill="black"/>
<path d="M285.988 142.097C281.559 140.646 275.32 143.975 272.934 157.919L282.135 160.604C282.135 160.604 292.316 144.177 285.988 142.097Z" fill="#407BFF"/>
<path d="M291.845 212.078H284.925V232.357H291.845V212.078Z" fill="#263238"/>
<path opacity="0.6" d="M291.845 212.078H284.925V232.357H291.845V212.078Z" fill="white"/>
<path d="M292.914 250.729V224.967H283.848V250.729L263.209 253.594V256.46L288.381 254.313L313.553 256.46V253.594L292.914 250.729Z" fill="#263238"/>
<path d="M262.91 263.484C264.418 263.484 265.641 262.261 265.641 260.753C265.641 259.245 264.418 258.023 262.91 258.023C261.402 258.023 260.18 259.245 260.18 260.753C260.18 262.261 261.402 263.484 262.91 263.484Z" fill="#407BFF"/>
<path d="M313.553 263.484C315.061 263.484 316.284 262.261 316.284 260.753C316.284 259.245 315.061 258.023 313.553 258.023C312.045 258.023 310.823 259.245 310.823 260.753C310.823 262.261 312.045 263.484 313.553 263.484Z" fill="#407BFF"/>
<path d="M288.381 263.484C289.889 263.484 291.112 262.261 291.112 260.753C291.112 259.245 289.889 258.023 288.381 258.023C286.873 258.023 285.651 259.245 285.651 260.753C285.651 262.261 286.873 263.484 288.381 263.484Z" fill="#407BFF"/>
<path opacity="0.3" d="M291.845 212.078H284.925V217.09H291.845V212.078Z" fill="black"/>
<path d="M315.737 166.11H293.191C291.419 166.111 289.711 166.774 288.401 167.968C287.091 169.161 286.273 170.801 286.107 172.566L284.207 192.935C283.996 195.18 282.985 197.274 281.357 198.834C279.729 200.395 277.594 201.317 275.343 201.433L253.582 202.525C252.308 202.59 251.109 203.142 250.23 204.066C249.352 204.991 248.862 206.217 248.862 207.492V207.948C248.862 209.042 249.296 210.09 250.069 210.863C250.842 211.636 251.89 212.07 252.983 212.07H319.253L322.822 173.92C322.917 172.931 322.806 171.934 322.493 170.991C322.181 170.049 321.675 169.182 321.008 168.447C320.341 167.711 319.528 167.123 318.62 166.721C317.712 166.319 316.73 166.11 315.737 166.11Z" fill="#407BFF"/>
<path opacity="0.3" d="M315.737 166.11H293.191C291.419 166.111 289.711 166.774 288.401 167.968C287.091 169.161 286.273 170.801 286.107 172.566L284.207 192.935C283.996 195.18 282.985 197.274 281.357 198.834C279.729 200.395 277.594 201.317 275.343 201.433L253.582 202.525C252.308 202.59 251.109 203.142 250.23 204.066C249.352 204.991 248.862 206.217 248.862 207.492V207.948C248.862 209.042 249.296 210.09 250.069 210.863C250.842 211.636 251.89 212.07 252.983 212.07H319.253L322.822 173.92C322.917 172.931 322.806 171.934 322.493 170.991C322.181 170.049 321.675 169.182 321.008 168.447C320.341 167.711 319.528 167.123 318.62 166.721C317.712 166.319 316.73 166.11 315.737 166.11Z" fill="white"/>
<path d="M263.987 189.06H267.092V205.3C267.092 205.697 266.934 206.078 266.654 206.358C266.373 206.639 265.992 206.796 265.596 206.796H265.483C265.087 206.796 264.706 206.639 264.426 206.358C264.145 206.078 263.987 205.697 263.987 205.3V189.06Z" fill="#263238"/>
<path opacity="0.2" d="M263.987 189.06H267.092V205.3C267.092 205.697 266.934 206.078 266.654 206.358C266.373 206.639 265.992 206.796 265.596 206.796H265.483C265.087 206.796 264.706 206.639 264.426 206.358C264.145 206.078 263.987 205.697 263.987 205.3V189.06Z" fill="white"/>
<path d="M278.956 184.4H272.051V190.122H278.971C279.359 190.142 279.747 190.083 280.111 189.948C280.476 189.813 280.809 189.606 281.091 189.338C281.372 189.07 281.597 188.748 281.75 188.391C281.903 188.034 281.982 187.65 281.982 187.261C281.982 186.872 281.903 186.488 281.75 186.131C281.597 185.774 281.372 185.452 281.091 185.184C280.809 184.916 280.476 184.709 280.111 184.574C279.747 184.439 279.359 184.38 278.971 184.4H278.956Z" fill="#407BFF"/>
<path opacity="0.5" d="M278.956 184.4H272.051V190.122H278.971C279.359 190.142 279.747 190.083 280.111 189.948C280.476 189.813 280.809 189.606 281.091 189.338C281.372 189.07 281.597 188.748 281.75 188.391C281.903 188.034 281.982 187.65 281.982 187.261C281.982 186.872 281.903 186.488 281.75 186.131C281.597 185.774 281.372 185.452 281.091 185.184C280.809 184.916 280.476 184.709 280.111 184.574C279.747 184.439 279.359 184.38 278.971 184.4H278.956Z" fill="white"/>
<path d="M276.196 184.4H252.011C250.487 184.4 249.251 185.635 249.251 187.16V187.369C249.251 188.894 250.487 190.13 252.011 190.13H276.196C277.72 190.13 278.956 188.894 278.956 187.369V187.16C278.956 185.635 277.72 184.4 276.196 184.4Z" fill="#407BFF"/>
<path opacity="0.3" d="M276.196 184.4H252.011C250.487 184.4 249.251 185.635 249.251 187.16V187.369C249.251 188.894 250.487 190.13 252.011 190.13H276.196C277.72 190.13 278.956 188.894 278.956 187.369V187.16C278.956 185.635 277.72 184.4 276.196 184.4Z" fill="white"/>
<path d="M320.809 212.078H287.663L291.358 172.603C291.524 170.838 292.342 169.199 293.652 168.005C294.962 166.811 296.67 166.149 298.443 166.147H320.989C321.979 166.148 322.958 166.356 323.863 166.756C324.769 167.157 325.581 167.742 326.247 168.474C326.914 169.206 327.421 170.069 327.735 171.008C328.049 171.947 328.164 172.941 328.073 173.927L324.849 208.442C324.743 209.44 324.272 210.364 323.527 211.035C322.781 211.706 321.813 212.078 320.809 212.078Z" fill="#407BFF"/>
<path opacity="0.5" d="M320.809 212.078H287.663L291.358 172.603C291.524 170.838 292.342 169.199 293.652 168.005C294.962 166.811 296.67 166.149 298.443 166.147H320.989C321.979 166.148 322.958 166.356 323.863 166.756C324.769 167.157 325.581 167.742 326.247 168.474C326.914 169.206 327.421 170.069 327.735 171.008C328.049 171.947 328.164 172.941 328.073 173.927L324.849 208.442C324.743 209.44 324.272 210.364 323.527 211.035C322.781 211.706 321.813 212.078 320.809 212.078Z" fill="white"/>
<path d="M243.379 263.177H211.145C210.502 263.178 209.865 263.052 209.27 262.807C208.676 262.561 208.136 262.201 207.681 261.747C207.226 261.292 206.865 260.753 206.618 260.159C206.372 259.565 206.245 258.928 206.245 258.285V184.168C206.245 183.525 206.372 182.888 206.618 182.294C206.865 181.7 207.226 181.16 207.681 180.706C208.136 180.251 208.676 179.891 209.27 179.646C209.865 179.4 210.502 179.275 211.145 179.276H243.379C243.726 179.276 244.059 179.414 244.304 179.659C244.55 179.905 244.688 180.238 244.688 180.585C244.688 180.932 244.55 181.265 244.304 181.51C244.059 181.756 243.726 181.894 243.379 181.894H211.145C210.847 181.889 210.551 181.943 210.275 182.054C209.998 182.164 209.746 182.329 209.534 182.538C209.322 182.747 209.153 182.996 209.038 183.27C208.923 183.545 208.863 183.84 208.863 184.138V258.255C208.863 258.553 208.923 258.848 209.038 259.122C209.153 259.397 209.322 259.646 209.534 259.855C209.746 260.064 209.998 260.228 210.275 260.339C210.551 260.45 210.847 260.504 211.145 260.499H243.379C243.726 260.499 244.059 260.637 244.304 260.882C244.55 261.128 244.688 261.461 244.688 261.808C244.696 261.985 244.668 262.162 244.606 262.327C244.544 262.493 244.448 262.645 244.326 262.773C244.204 262.901 244.057 263.002 243.894 263.072C243.731 263.141 243.556 263.177 243.379 263.177Z" fill="#263238"/>
<g opacity="0.5">
<path opacity="0.5" d="M243.379 263.177H211.145C210.502 263.178 209.865 263.052 209.27 262.807C208.676 262.561 208.136 262.201 207.681 261.747C207.226 261.292 206.865 260.753 206.618 260.159C206.372 259.565 206.245 258.928 206.245 258.285V184.168C206.245 183.525 206.372 182.888 206.618 182.294C206.865 181.7 207.226 181.16 207.681 180.706C208.136 180.251 208.676 179.891 209.27 179.646C209.865 179.4 210.502 179.275 211.145 179.276H243.379C243.726 179.276 244.059 179.414 244.304 179.659C244.55 179.905 244.688 180.238 244.688 180.585C244.688 180.932 244.55 181.265 244.304 181.51C244.059 181.756 243.726 181.894 243.379 181.894H211.145C210.847 181.889 210.551 181.943 210.275 182.054C209.998 182.164 209.746 182.329 209.534 182.538C209.322 182.747 209.153 182.996 209.038 183.27C208.923 183.545 208.863 183.84 208.863 184.138V258.255C208.863 258.553 208.923 258.848 209.038 259.122C209.153 259.397 209.322 259.646 209.534 259.855C209.746 260.064 209.998 260.228 210.275 260.339C210.551 260.45 210.847 260.504 211.145 260.499H243.379C243.726 260.499 244.059 260.637 244.304 260.882C244.55 261.128 244.688 261.461 244.688 261.808C244.696 261.985 244.668 262.162 244.606 262.327C244.544 262.493 244.448 262.645 244.326 262.773C244.204 262.901 244.057 263.002 243.894 263.072C243.731 263.141 243.556 263.177 243.379 263.177Z" fill="white"/>
</g>
<path d="M222.074 140.28L219.83 138.784C219.773 138.747 219.726 138.697 219.693 138.637C219.661 138.578 219.643 138.511 219.643 138.443C219.643 138.375 219.661 138.309 219.693 138.249C219.726 138.19 219.773 138.139 219.83 138.103L222.074 136.607C222.156 136.553 222.257 136.533 222.354 136.553C222.45 136.572 222.535 136.63 222.59 136.711C222.642 136.793 222.66 136.892 222.64 136.987C222.621 137.082 222.565 137.165 222.485 137.22L220.623 138.454L222.485 139.689C222.565 139.743 222.621 139.827 222.64 139.922C222.66 140.017 222.642 140.116 222.59 140.197C222.531 140.274 222.444 140.326 222.348 140.341C222.252 140.356 222.154 140.334 222.074 140.28Z" fill="white"/>
<path d="M227.041 140.175C226.996 140.093 226.985 139.997 227.008 139.907C227.032 139.816 227.089 139.738 227.168 139.689L229.031 138.454L227.168 137.198C227.088 137.143 227.033 137.059 227.014 136.963C226.996 136.868 227.017 136.769 227.071 136.689C227.097 136.649 227.132 136.614 227.172 136.587C227.211 136.56 227.256 136.541 227.304 136.531C227.351 136.521 227.4 136.521 227.447 136.53C227.494 136.539 227.539 136.558 227.58 136.584L229.824 138.08C229.881 138.117 229.928 138.167 229.961 138.227C229.993 138.286 230.01 138.353 230.01 138.421C230.01 138.489 229.993 138.555 229.961 138.615C229.928 138.674 229.881 138.725 229.824 138.761L227.58 140.257C227.539 140.289 227.493 140.312 227.444 140.324C227.395 140.337 227.343 140.34 227.293 140.332C227.242 140.325 227.194 140.307 227.151 140.28C227.107 140.253 227.07 140.217 227.041 140.175Z" fill="white"/>
<path d="M223.967 141.185C223.92 141.17 223.877 141.147 223.84 141.116C223.803 141.084 223.772 141.046 223.75 141.003C223.728 140.96 223.714 140.913 223.71 140.864C223.706 140.816 223.712 140.767 223.727 140.721L225.276 135.829C225.289 135.783 225.312 135.74 225.343 135.703C225.373 135.666 225.411 135.635 225.453 135.613C225.496 135.59 225.542 135.577 225.59 135.573C225.638 135.569 225.686 135.574 225.732 135.589C225.778 135.603 225.821 135.626 225.858 135.656C225.895 135.687 225.926 135.724 225.948 135.767C225.97 135.81 225.984 135.856 225.988 135.904C225.992 135.952 225.986 136 225.971 136.046L224.43 140.945C224.416 140.992 224.392 141.035 224.361 141.072C224.33 141.109 224.292 141.14 224.249 141.162C224.205 141.184 224.158 141.198 224.11 141.202C224.061 141.206 224.013 141.2 223.967 141.185Z" fill="white"/>
<path d="M236.669 144.925H220.009C219.959 144.925 219.908 144.915 219.862 144.895C219.815 144.876 219.772 144.847 219.737 144.811C219.701 144.775 219.673 144.732 219.655 144.684C219.636 144.637 219.627 144.587 219.628 144.536C219.627 144.485 219.636 144.435 219.655 144.388C219.673 144.341 219.701 144.298 219.737 144.262C219.772 144.225 219.815 144.197 219.862 144.177C219.908 144.157 219.959 144.147 220.009 144.147H236.669C236.772 144.147 236.871 144.188 236.944 144.261C237.017 144.334 237.057 144.433 237.057 144.536C237.057 144.587 237.047 144.638 237.028 144.685C237.008 144.732 236.98 144.775 236.944 144.811C236.907 144.847 236.865 144.876 236.817 144.896C236.77 144.915 236.72 144.925 236.669 144.925Z" fill="white"/>
<path d="M255.804 144.925H239.137C239.086 144.925 239.035 144.915 238.988 144.895C238.941 144.876 238.898 144.847 238.862 144.811C238.826 144.775 238.797 144.732 238.778 144.685C238.758 144.638 238.748 144.587 238.748 144.536C238.756 144.438 238.8 144.347 238.872 144.28C238.944 144.214 239.039 144.177 239.137 144.177H255.789C255.892 144.177 255.991 144.218 256.064 144.291C256.137 144.364 256.178 144.463 256.178 144.566C256.17 144.661 256.128 144.751 256.059 144.817C255.99 144.883 255.899 144.922 255.804 144.925Z" fill="white"/>
<path d="M229.532 148.351H220.009C219.959 148.351 219.908 148.341 219.862 148.321C219.815 148.302 219.772 148.273 219.737 148.237C219.701 148.2 219.673 148.158 219.655 148.11C219.636 148.063 219.627 148.013 219.628 147.962C219.628 147.861 219.668 147.764 219.74 147.692C219.811 147.621 219.908 147.581 220.009 147.581H229.532C229.634 147.581 229.732 147.62 229.805 147.692C229.877 147.763 229.919 147.86 229.921 147.962C229.921 148.065 229.88 148.164 229.807 148.237C229.734 148.31 229.635 148.351 229.532 148.351Z" fill="white"/>
<path d="M247.605 148.351H232.008C231.957 148.351 231.907 148.341 231.86 148.321C231.814 148.302 231.771 148.273 231.736 148.237C231.7 148.2 231.672 148.158 231.653 148.11C231.635 148.063 231.626 148.013 231.627 147.962C231.627 147.861 231.667 147.764 231.738 147.692C231.81 147.621 231.907 147.581 232.008 147.581H247.605C247.706 147.581 247.803 147.621 247.875 147.692C247.946 147.764 247.987 147.861 247.987 147.962C247.987 148.013 247.978 148.063 247.96 148.11C247.941 148.158 247.913 148.2 247.877 148.237C247.842 148.273 247.8 148.302 247.753 148.321C247.706 148.341 247.656 148.351 247.605 148.351Z" fill="white"/>
<path d="M245.383 151.785H220.009C219.908 151.783 219.811 151.741 219.739 151.668C219.668 151.596 219.628 151.498 219.628 151.396C219.627 151.345 219.636 151.295 219.655 151.248C219.673 151.2 219.701 151.157 219.737 151.121C219.772 151.085 219.815 151.056 219.862 151.037C219.908 151.017 219.959 151.007 220.009 151.007H245.383C245.486 151.007 245.585 151.048 245.658 151.121C245.731 151.194 245.772 151.293 245.772 151.396C245.772 151.499 245.731 151.598 245.658 151.671C245.585 151.744 245.486 151.785 245.383 151.785Z" fill="white"/>
<path d="M253.163 151.785H247.867C247.764 151.785 247.665 151.744 247.592 151.671C247.519 151.598 247.478 151.499 247.478 151.396C247.478 151.293 247.519 151.194 247.592 151.121C247.665 151.048 247.764 151.007 247.867 151.007H253.163C253.266 151.007 253.365 151.048 253.438 151.121C253.511 151.194 253.552 151.293 253.552 151.396C253.552 151.499 253.511 151.598 253.438 151.671C253.365 151.744 253.266 151.785 253.163 151.785Z" fill="white"/>
<path d="M231.859 155.211H220.009C219.959 155.211 219.908 155.201 219.862 155.181C219.815 155.161 219.772 155.133 219.737 155.096C219.701 155.06 219.673 155.017 219.655 154.97C219.636 154.923 219.627 154.873 219.628 154.822C219.627 154.771 219.636 154.721 219.655 154.674C219.673 154.626 219.701 154.583 219.737 154.547C219.772 154.511 219.815 154.482 219.862 154.463C219.908 154.443 219.959 154.433 220.009 154.433H231.859C231.962 154.433 232.061 154.474 232.134 154.547C232.207 154.62 232.248 154.719 232.248 154.822C232.248 154.925 232.207 155.024 232.134 155.097C232.061 155.17 231.962 155.211 231.859 155.211Z" fill="white"/>
<path d="M249.086 155.211H234.342C234.239 155.211 234.14 155.17 234.067 155.097C233.994 155.024 233.953 154.925 233.953 154.822C233.953 154.719 233.994 154.62 234.067 154.547C234.14 154.474 234.239 154.433 234.342 154.433H249.086C249.189 154.433 249.288 154.474 249.361 154.547C249.434 154.62 249.475 154.719 249.475 154.822C249.475 154.925 249.434 155.024 249.361 155.097C249.288 155.17 249.189 155.211 249.086 155.211Z" fill="white"/>
<path d="M236.669 158.637H220.009C219.959 158.637 219.908 158.627 219.862 158.607C219.815 158.587 219.772 158.559 219.737 158.522C219.701 158.486 219.673 158.443 219.655 158.396C219.636 158.349 219.627 158.299 219.628 158.248C219.628 158.147 219.668 158.05 219.74 157.978C219.811 157.906 219.908 157.866 220.009 157.866H236.669C236.719 157.865 236.77 157.874 236.817 157.893C236.864 157.912 236.907 157.94 236.943 157.975C236.979 158.011 237.008 158.053 237.028 158.1C237.047 158.147 237.057 158.197 237.057 158.248C237.057 158.351 237.017 158.45 236.944 158.523C236.871 158.596 236.772 158.637 236.669 158.637Z" fill="white"/>
<path d="M250.904 158.637H239.137C239.034 158.637 238.935 158.596 238.862 158.523C238.789 158.45 238.748 158.351 238.748 158.248C238.748 158.197 238.758 158.147 238.778 158.1C238.797 158.053 238.826 158.011 238.862 157.975C238.899 157.94 238.942 157.912 238.989 157.893C239.036 157.874 239.086 157.865 239.137 157.866H250.889C250.99 157.866 251.087 157.906 251.159 157.978C251.23 158.05 251.27 158.147 251.27 158.248C251.272 158.348 251.235 158.444 251.167 158.517C251.098 158.59 251.004 158.633 250.904 158.637Z" fill="white"/>
<path d="M106.336 91.679C106.642 95.2023 105.879 101.583 103.224 103.648C107.555 105.211 112.148 107.904 115.08 111.457C117.99 107.223 114.684 104.807 114.684 104.807C110.944 103.476 111.34 100.641 112.305 98.0299L106.336 91.679Z" fill="#B97964"/>
<path d="M120.496 88.6417C120.451 89.0831 120.661 89.4646 120.952 89.4945C121.244 89.5244 121.506 89.1803 121.551 88.7465C121.596 88.3126 121.386 87.9236 121.095 87.8937C120.803 87.8638 120.549 88.2004 120.496 88.6417Z" fill="#263238"/>
<path d="M120.982 87.9011L122.067 87.6917C122.067 87.6917 121.446 88.4921 120.982 87.9011Z" fill="#263238"/>
<path d="M120.646 89.113C120.951 90.1652 121.397 91.1716 121.97 92.1052C121.727 92.2455 121.457 92.3315 121.178 92.3574C120.899 92.3832 120.618 92.3482 120.354 92.2548L120.646 89.113Z" fill="#A24E3F"/>
<path d="M121.753 86.3154C121.822 86.3044 121.885 86.2701 121.932 86.2182C121.979 86.1683 122.004 86.1029 122.004 86.0349C122.004 85.9669 121.979 85.9014 121.932 85.8516C121.625 85.5708 121.254 85.3678 120.852 85.2598C120.45 85.1517 120.028 85.1418 119.621 85.2307C119.564 85.2703 119.523 85.33 119.508 85.3979C119.493 85.4658 119.504 85.537 119.539 85.5973C119.562 85.6357 119.595 85.6672 119.634 85.6882C119.674 85.7093 119.718 85.7193 119.763 85.717C120.087 85.6551 120.42 85.6696 120.737 85.7592C121.054 85.8488 121.345 86.0111 121.588 86.2331C121.632 86.279 121.69 86.3081 121.753 86.3154Z" fill="#263238"/>
<path d="M105.984 85.8292C105.812 91.2974 105.625 93.6239 108.064 96.6759C111.736 101.261 118.387 100.259 120.167 94.9329C121.768 90.1379 121.783 81.9692 116.748 79.3211C111.714 76.673 106.141 80.346 105.984 85.8292Z" fill="#B97964"/>
<path d="M106.223 96.1596C100.845 95.2395 102.386 91.8509 102.386 91.8509C97.0897 90.7812 101.181 88.1929 101.181 88.1929C96.7755 86.2928 101.181 84.5873 101.181 84.5873C96.9326 81.064 102.992 79.8446 102.992 79.8446C101.496 74.3465 106.732 76.6056 106.732 76.6056C109.575 71.8779 112.028 76.3887 112.028 76.3887C117.01 69.6562 118.222 75.3339 118.222 75.3339C123.316 73.9949 121.364 79.3509 121.364 79.3509C125.553 80.473 122.262 82.5975 122.262 82.5975C123.877 84.6396 118.035 84.9912 118.035 84.9912C118.035 84.9912 120.818 89.4795 118.035 90.7138L110.959 96.1372C110.959 96.1372 107.69 94.8057 106.223 96.1596Z" fill="#263238"/>
<path d="M111.512 91.7461C111.512 91.7461 115.252 82.7695 112.327 75.1095L114.796 74.2642C114.796 74.2642 118.02 85.4026 111.512 91.7461Z" fill="#407BFF"/>
<path d="M115.245 90.7587C115.858 92.0453 116.098 92.6064 116.98 93.0028C117.253 93.1593 117.566 93.232 117.879 93.2119C118.193 93.1919 118.494 93.08 118.744 92.8902C118.995 92.7003 119.184 92.4409 119.288 92.1444C119.392 91.8478 119.406 91.5272 119.329 91.2225C119.097 89.9358 118.11 88.0433 116.741 88.0059C116.421 88.0075 116.107 88.095 115.832 88.2593C115.557 88.4236 115.332 88.6587 115.179 88.94C115.026 89.2212 114.952 89.5384 114.963 89.8583C114.975 90.1782 115.072 90.4892 115.245 90.7587Z" fill="#B97964"/>
<path d="M111.377 109.445C111.377 109.445 116.442 113.185 118.499 114.681L133.153 107.769C133.133 106.957 133.357 106.157 133.797 105.474C134.238 104.791 134.873 104.256 135.622 103.939L136.669 103.506L138.876 102.518C139.287 102.335 139.739 102.263 140.187 102.31C140.635 102.357 141.063 102.522 141.427 102.787C141.854 103.099 142.175 103.535 142.345 104.036C142.515 104.537 142.526 105.078 142.377 105.585C142.069 106.637 141.494 107.591 140.707 108.354C139.92 109.117 138.949 109.663 137.888 109.939L135.749 110.5C135.749 110.5 123.189 120.015 118.701 120.239C114.213 120.464 107.637 116.058 107.637 116.058L111.377 109.445Z" fill="#B97964"/>
<path d="M99.1991 103.139C103.067 103.139 107.39 105.548 114.16 109.961C113.188 113.143 111.379 116.005 108.924 118.25C108.924 118.25 105.184 117.247 100.216 112.572C94.2321 106.909 96.8278 103.146 99.1991 103.139Z" fill="#263238"/>
<path d="M172.658 114.345H136.003C135.695 114.35 135.389 114.289 135.106 114.167C134.823 114.045 134.569 113.864 134.361 113.636C134.153 113.408 133.996 113.139 133.9 112.846C133.804 112.553 133.771 112.243 133.804 111.936L136.564 80.3834C136.63 79.731 136.933 79.1254 137.416 78.6814C137.898 78.2375 138.527 77.986 139.182 77.9747H175.837C176.145 77.9696 176.451 78.0302 176.733 78.1525C177.016 78.2747 177.27 78.4558 177.477 78.6837C177.685 78.9116 177.841 79.181 177.936 79.4741C178.031 79.7672 178.063 80.0772 178.029 80.3834L175.268 111.936C175.203 112.587 174.901 113.192 174.42 113.636C173.939 114.079 173.312 114.332 172.658 114.345Z" fill="#407BFF"/>
<path opacity="0.4" d="M172.658 114.345H136.003C135.695 114.35 135.389 114.289 135.106 114.167C134.823 114.045 134.569 113.864 134.361 113.636C134.153 113.408 133.996 113.139 133.9 112.846C133.804 112.553 133.771 112.243 133.804 111.936L136.564 80.3834C136.63 79.731 136.933 79.1254 137.416 78.6814C137.898 78.2375 138.527 77.986 139.182 77.9747H175.837C176.145 77.9696 176.451 78.0302 176.733 78.1525C177.016 78.2747 177.27 78.4558 177.477 78.6837C177.685 78.9116 177.841 79.181 177.936 79.4741C178.031 79.7672 178.063 80.0772 178.029 80.3834L175.268 111.936C175.203 112.587 174.901 113.192 174.42 113.636C173.939 114.079 173.312 114.332 172.658 114.345Z" fill="white"/>
<path opacity="0.7" d="M172.792 112.849C173.04 112.844 173.278 112.749 173.46 112.58C173.642 112.412 173.756 112.183 173.78 111.936L176.54 80.3832C176.553 80.2672 176.541 80.1498 176.505 80.0389C176.469 79.9279 176.409 79.8259 176.331 79.7396C176.252 79.6532 176.156 79.5846 176.049 79.5383C175.942 79.4919 175.826 79.4688 175.71 79.4706H139.055C138.807 79.4747 138.568 79.5699 138.385 79.738C138.201 79.9062 138.086 80.1357 138.06 80.3832L135.308 111.936C135.295 112.052 135.307 112.169 135.343 112.28C135.379 112.391 135.438 112.493 135.517 112.58C135.595 112.666 135.691 112.735 135.798 112.781C135.906 112.827 136.021 112.85 136.138 112.849H172.792Z" fill="white"/>
<path d="M147.321 94.2971L135.352 111.622V111.936C135.34 112.052 135.352 112.17 135.388 112.28C135.424 112.391 135.483 112.493 135.562 112.58C135.64 112.666 135.736 112.735 135.843 112.781C135.95 112.827 136.066 112.851 136.183 112.849H156.949L147.321 94.2971Z" fill="#407BFF"/>
<path opacity="0.3" d="M147.321 94.2971L135.352 111.622V111.936C135.34 112.052 135.352 112.17 135.388 112.28C135.424 112.391 135.483 112.493 135.562 112.58C135.64 112.666 135.736 112.735 135.843 112.781C135.95 112.827 136.066 112.851 136.183 112.849H156.949L147.321 94.2971Z" fill="white"/>
<path d="M173.885 110.732L163.853 91.679L148.997 112.849H172.792C173.04 112.844 173.278 112.749 173.46 112.581C173.642 112.412 173.756 112.183 173.78 111.936L173.885 110.732Z" fill="#407BFF"/>
<path d="M159.978 88.3127C159.887 89.2245 159.464 90.0709 158.789 90.6915C158.115 91.312 157.237 91.6634 156.32 91.6789C155.889 91.6868 155.461 91.6027 155.065 91.4323C154.669 91.2619 154.313 91.009 154.022 90.6905C153.732 90.3721 153.512 89.9953 153.378 89.5853C153.244 89.1753 153.199 88.7415 153.246 88.3127C153.336 87.3996 153.758 86.5513 154.432 85.9293C155.107 85.3072 155.986 84.9548 156.904 84.939C157.336 84.931 157.764 85.0153 158.161 85.1861C158.558 85.357 158.914 85.6106 159.205 85.9299C159.496 86.2492 159.715 86.6269 159.849 87.0378C159.982 87.4487 160.026 87.8834 159.978 88.3127Z" fill="#407BFF"/>
<path opacity="0.4" d="M159.978 88.3127C159.887 89.2245 159.464 90.0709 158.789 90.6915C158.115 91.312 157.237 91.6634 156.32 91.6789C155.889 91.6868 155.461 91.6027 155.065 91.4323C154.669 91.2619 154.313 91.009 154.022 90.6905C153.732 90.3721 153.512 89.9953 153.378 89.5853C153.244 89.1753 153.199 88.7415 153.246 88.3127C153.336 87.3996 153.758 86.5513 154.432 85.9293C155.107 85.3072 155.986 84.9548 156.904 84.939C157.336 84.931 157.764 85.0153 158.161 85.1861C158.558 85.357 158.914 85.6106 159.205 85.9299C159.496 86.2492 159.715 86.6269 159.849 87.0378C159.982 87.4487 160.026 87.8834 159.978 88.3127Z" fill="white"/>
<path d="M68.5066 241.7L64.7813 252.742L70.489 255.076L74.9548 244.887L68.5066 241.7Z" fill="#B97964"/>
<path d="M72.5386 254.799C72.5093 254.781 72.4855 254.756 72.4697 254.725C72.4538 254.695 72.4466 254.661 72.4488 254.627C72.453 254.594 72.4676 254.563 72.4905 254.539C72.5133 254.515 72.5433 254.498 72.576 254.492C72.6957 254.492 75.3887 253.864 76.3911 254.492C76.5806 254.608 76.7175 254.793 76.7726 255.008C76.8145 255.128 76.8183 255.258 76.7835 255.38C76.7486 255.501 76.6769 255.61 76.5781 255.689C76.1966 255.958 75.3064 255.846 74.491 255.592C73.8187 255.384 73.1655 255.119 72.5386 254.799ZM73.1071 254.746C74.2816 255.27 75.9422 255.771 76.3761 255.442C76.436 255.397 76.5108 255.322 76.4509 255.091C76.4393 255.023 76.4115 254.959 76.3698 254.904C76.3281 254.849 76.2738 254.806 76.2115 254.776C76.1233 254.721 76.0276 254.678 75.9273 254.649C74.9896 254.502 74.0325 254.535 73.1071 254.746Z" fill="#407BFF"/>
<path d="M72.4563 254.761C72.4419 254.736 72.4343 254.708 72.4343 254.679C72.4343 254.65 72.4419 254.622 72.4563 254.597C72.4563 254.522 73.2044 252.801 74.2591 252.353C74.4096 252.29 74.5711 252.258 74.7342 252.258C74.8972 252.258 75.0587 252.29 75.2092 252.353C75.6206 252.525 75.6879 252.787 75.6505 252.966C75.5608 253.751 73.541 254.687 72.6583 254.791C72.6479 254.797 72.6363 254.799 72.6247 254.799C72.613 254.799 72.6014 254.797 72.591 254.791C72.5679 254.798 72.5434 254.799 72.5198 254.794C72.4962 254.789 72.4744 254.777 72.4563 254.761ZM74.9922 252.644C74.7991 252.573 74.587 252.573 74.3938 252.644C73.7279 253.058 73.2055 253.666 72.8977 254.387C73.8627 254.155 75.2391 253.362 75.3363 252.891C75.3363 252.846 75.3363 252.727 75.082 252.622H74.9922V252.644Z" fill="#407BFF"/>
<path d="M72.1496 253.669L64.9833 251.425C64.8521 251.385 64.711 251.39 64.5833 251.441C64.4555 251.491 64.3486 251.583 64.2801 251.702L61.1832 257.133C61.1163 257.247 61.0726 257.374 61.0548 257.505C61.037 257.636 61.0454 257.769 61.0795 257.897C61.1136 258.025 61.1727 258.145 61.2534 258.25C61.3341 258.355 61.4348 258.443 61.5497 258.509C61.6109 258.547 61.6761 258.577 61.7442 258.599C64.34 259.347 66.6814 259.916 69.898 260.918C73.6981 262.085 72.591 262.242 77.0344 263.686C79.7124 264.554 81.1487 261.644 80.0266 261.142C75.0072 258.898 74.9548 257.133 73.5186 254.642C73.1937 254.164 72.7078 253.819 72.1496 253.669Z" fill="#263238"/>
<path opacity="0.2" d="M66.7188 246.997L72.7032 250.019L74.9548 244.887L68.5066 241.7L66.7188 246.997Z" fill="#263238"/>
<path d="M93.8057 139.577C93.8057 139.577 85.7641 145.718 87.4847 164.958C87.6492 166.738 88.2327 168.601 88.2327 170.636C88.2327 171.99 87.8587 172.94 87.4173 175.984C86.774 180.413 85.5921 196.93 84.3428 199.077C83.0936 201.224 82.5849 200.842 79.1065 206.767C75.3662 213.14 70.5039 224.316 66.7412 243.257C69.2536 245.03 72.1233 246.232 75.1493 246.78C75.1493 246.78 95.6983 214.374 100.067 202.308C103.979 191.514 108.64 157.066 108.64 157.066L109.014 142.105L93.8057 139.577Z" fill="#407BFF"/>
<path opacity="0.1" d="M102.603 164.958H96.783C96.783 164.958 94.868 183.27 101.196 198.545C101.855 196.092 102.521 193.152 103.171 189.973L105.692 173.845C105.333 171.122 105.056 169.042 105.012 168.908C104.884 168.481 102.603 164.958 102.603 164.958Z" fill="black"/>
<path d="M101.645 246.144L101.683 257.881L108.303 257.439L109.32 246.144H101.645Z" fill="#B97964"/>
<path d="M109.066 257.237C109.033 257.233 109.002 257.219 108.978 257.196C108.954 257.173 108.937 257.143 108.931 257.11C108.924 257.077 108.927 257.043 108.94 257.012C108.954 256.981 108.977 256.955 109.006 256.938C109.111 256.878 111.452 255.442 112.612 255.696C112.828 255.745 113.018 255.873 113.143 256.055C113.22 256.156 113.265 256.278 113.272 256.405C113.279 256.532 113.247 256.658 113.18 256.766C112.605 257.198 111.893 257.407 111.175 257.357C110.47 257.381 109.764 257.341 109.066 257.237ZM109.59 257.006C110.869 257.118 112.582 257.043 112.903 256.587C112.948 256.527 112.986 256.43 112.859 256.228C112.824 256.169 112.776 256.119 112.719 256.081C112.662 256.043 112.597 256.019 112.529 256.011C112.428 255.995 112.324 255.995 112.223 256.011C111.288 256.167 110.394 256.505 109.59 257.006Z" fill="#407BFF"/>
<path d="M108.976 257.238C108.951 257.221 108.93 257.199 108.916 257.173C108.902 257.147 108.894 257.118 108.894 257.088C108.894 257.006 109.021 255.143 109.866 254.395C109.987 254.284 110.129 254.2 110.283 254.145C110.437 254.091 110.601 254.069 110.764 254.081C111.213 254.081 111.362 254.335 111.385 254.522C111.557 255.27 109.964 256.834 109.141 257.23C109.119 257.237 109.095 257.237 109.073 257.23C109.043 257.244 109.008 257.247 108.976 257.238ZM110.667 254.395C110.461 254.399 110.264 254.479 110.113 254.619C109.62 255.229 109.327 255.976 109.275 256.759C110.106 256.228 111.146 255.023 111.086 254.56C111.086 254.515 111.048 254.395 110.757 254.38H110.667V254.395Z" fill="#407BFF"/>
<path d="M108.333 256.302L100.852 256.572C100.716 256.578 100.585 256.63 100.482 256.72C100.379 256.809 100.309 256.931 100.284 257.065L99.1468 263.214C99.0963 263.475 99.1514 263.746 99.3001 263.966C99.4488 264.186 99.6789 264.338 99.9397 264.389C100.012 264.396 100.085 264.396 100.157 264.389C102.857 264.239 105.251 264.007 108.617 263.895C112.589 263.753 111.609 264.262 116.27 264.164C119.09 264.097 119.486 260.881 118.289 260.768C112.806 260.275 112.178 258.644 110.001 256.766C109.522 256.41 108.927 256.245 108.333 256.302Z" fill="#263238"/>
<path opacity="0.2" d="M101.668 252.218L108.789 252.068L109.32 246.144H101.645L101.668 252.218Z" fill="#263238"/>
<path d="M98.2865 137.445C98.2865 137.445 90.26 148.074 96.207 168.863L102.939 199.226C102.939 199.226 96.5511 213.035 99.9472 249.465C103.239 249.928 106.584 249.852 109.851 249.241C109.851 249.241 117.332 210.769 118.461 197.775C119.711 183.457 118.963 140.302 118.963 140.302L98.2865 137.445Z" fill="#407BFF"/>
<path d="M103.134 102.989C103.134 102.989 101.892 97.6782 109.866 99.9972C117.841 102.316 117.167 106.857 117.167 106.857L103.134 102.989Z" fill="#263238"/>
<path opacity="0.4" d="M103.134 102.989C103.134 102.989 101.892 97.6782 109.866 99.9972C117.841 102.316 117.167 106.857 117.167 106.857L103.134 102.989Z" fill="black"/>
<path d="M122.912 116.275C122.912 118.137 122.164 120.83 121.416 123.845C121.072 125.274 120.758 126.762 120.549 128.273C119.419 136.502 119.052 145.172 119.052 145.172C114.65 146.132 110.098 146.175 105.678 145.299C101.259 144.422 97.0669 142.645 93.3643 140.078C93.3643 140.078 96.4987 137.422 95.8554 119.028C95.5636 110.739 92.5714 100.887 106.268 102.436C117.833 103.745 121.723 107.335 122.658 112.953C122.658 113.021 122.658 113.095 122.658 113.17L122.725 113.694C122.838 114.55 122.901 115.411 122.912 116.275Z" fill="#263238"/>
<path opacity="0.4" d="M122.912 116.275C122.912 118.137 122.164 120.83 121.416 123.845C118.289 120.105 115.155 113.036 115.155 113.036L117.736 109.236L122.284 111.353C122.441 111.878 122.566 112.413 122.658 112.953C122.658 113.021 122.658 113.096 122.658 113.17L122.725 113.694C122.838 114.55 122.901 115.412 122.912 116.275Z" fill="black"/>
<path d="M127.677 113.028C127.677 113.028 132.166 117.457 133.939 119.237L149.453 114.584C149.555 113.782 149.894 113.029 150.427 112.421C150.961 111.813 151.663 111.378 152.445 111.173L153.538 110.889L155.872 110.245C156.306 110.128 156.764 110.126 157.2 110.24C157.636 110.354 158.034 110.58 158.355 110.896C158.731 111.267 158.983 111.745 159.077 112.264C159.171 112.784 159.102 113.32 158.879 113.799C158.417 114.793 157.706 115.651 156.814 116.289C155.923 116.927 154.882 117.324 153.792 117.442L151.593 117.674C151.593 117.674 137.746 125.236 133.288 124.817C128.829 124.399 122.972 119.035 122.972 119.035L127.677 113.028Z" fill="#B97964"/>
<path d="M116.532 104.972C120.362 105.533 124.274 108.577 130.348 113.948C128.909 116.953 126.69 119.515 123.922 121.369C123.922 121.369 120.384 119.821 116.165 114.457C111.063 107.964 114.213 104.628 116.532 104.972Z" fill="#263238"/>
</svg>
